<?xml version="1.0" encoding="UTF-8" standalone="no"?>
<!-- Created with Inkscape (http://www.inkscape.org/) -->

<svg
   xmlns:dc="http://purl.org/dc/elements/1.1/"
   xmlns:cc="http://creativecommons.org/ns#"
   xmlns:rdf="http://www.w3.org/1999/02/22-rdf-syntax-ns#"
   xmlns:svg="http://www.w3.org/2000/svg"
   xmlns="http://www.w3.org/2000/svg"
   xmlns:sodipodi="http://sodipodi.sourceforge.net/DTD/sodipodi-0.dtd"
   xmlns:inkscape="http://www.inkscape.org/namespaces/inkscape"
   width="50.574223mm"
   height="50.799999mm"
   viewBox="0 0 179.2 180"
   id="svg2"
   version="1.1"
   inkscape:version="0.91 r13725"
   sodipodi:docname="am-favicon.svg"
   inkscape:export-filename="/Users/moca/Desktop/favicon.png"
   inkscape:export-xdpi="16.071428"
   inkscape:export-ydpi="16.071428">
  <defs
     id="defs4">
    <inkscape:perspective
       sodipodi:type="inkscape:persp3d"
       inkscape:vp_x="-10.110864 : 536.29195 : 1"
       inkscape:vp_y="0 : 999.99998 : 0"
       inkscape:vp_z="733.98364 : 536.29195 : 1"
       inkscape:persp3d-origin="361.93638 : 360.89825 : 1"
       id="perspective6343" />
  </defs>
  <sodipodi:namedview
     id="base"
     pagecolor="#ffffff"
     bordercolor="#666666"
     borderopacity="1.0"
     inkscape:pageopacity="0.0"
     inkscape:pageshadow="2"
     inkscape:zoom="1.0753353"
     inkscape:cx="9.0924183"
     inkscape:cy="68.856809"
     inkscape:document-units="px"
     inkscape:current-layer="layer1"
     showgrid="false"
     inkscape:window-width="1440"
     inkscape:window-height="851"
     inkscape:window-x="0"
     inkscape:window-y="1"
     inkscape:window-maximized="1"
     showguides="true"
     fit-margin-top="0"
     fit-margin-left="0"
     fit-margin-right="0"
     fit-margin-bottom="0" />
  <metadata
     id="metadata7">
    <rdf:RDF>
      <cc:Work
         rdf:about="">
        <dc:format>image/svg+xml</dc:format>
        <dc:type
           rdf:resource="http://purl.org/dc/dcmitype/StillImage" />
        <dc:title></dc:title>
      </cc:Work>
    </rdf:RDF>
  </metadata>
  <g
     inkscape:label="Layer 1"
     inkscape:groupmode="layer"
     id="layer1"
     transform="translate(-370.69928,-87.665137)">
    <g
       id="g4187">
      <path
         d="m 549.85933,177.66515 a 89.560043,89.960037 0 0 1 -89.42405,89.95993 89.560043,89.960037 0 0 1 -89.69562,-89.68674 89.560043,89.960037 0 0 1 89.15166,-90.232298 89.560043,89.960037 0 0 1 89.96636,89.412718"
         sodipodi:open="true"
         sodipodi:end="6.2771116"
         sodipodi:start="0"
         sodipodi:ry="89.960037"
         sodipodi:rx="89.560043"
         sodipodi:cy="177.66515"
         sodipodi:cx="460.29929"
         sodipodi:type="arc"
         id="path4183"
         style="opacity:1;fill:#ffffff;fill-opacity:1;stroke:#ffffff;stroke-width:0.079904;stroke-linecap:round;stroke-miterlimit:4;stroke-dasharray:none;stroke-dashoffset:0;stroke-opacity:1" />
      <g
         transform="translate(156.79245,-267.70986)"
         id="g7406">
        <path
           inkscape:connector-curvature="0"
           style="opacity:1;fill:#c6f11a;fill-opacity:1;stroke:none;stroke-width:0.5;stroke-linecap:round;stroke-miterlimit:4;stroke-dasharray:none;stroke-dashoffset:0;stroke-opacity:1"
           d="m 275.38086,444.87305 c -3.80107,9.99962 -7.53855,19.67849 -11.21289,29.03711 -3.67436,9.35861 -7.15889,18.07768 -10.45313,26.15429 l 97.87696,0 c -3.29427,-8.07661 -6.84152,-16.79568 -10.64258,-26.15429 -3.66904,-9.34509 -7.40189,-19.00991 -11.19727,-28.99414 l -49.86718,-0.043 -4.50391,0 z"
           id="path6870" />
        <g
           id="g6914">
          <path
             inkscape:connector-curvature="0"
             id="path6868"
             d="m 232.35547,391.52148 0,108.54297 8.66992,0 -0.42383,-90.33398 c 9.10633,9.7268 19.10588,19.88574 29.40821,30.07812 0.94759,-2.38548 1.89419,-4.78625 2.84179,-7.1914 -12.97244,-12.97569 -26.04285,-26.21973 -40.49609,-41.09571 z m 142.30273,0 c -14.27161,13.60024 -28.05568,27.1433 -42.20508,41.13086 0.90885,2.31847 1.78964,4.58068 2.68946,6.88086 9.7072,-9.69189 19.70236,-19.52418 30.63476,-30.09179 l -0.21093,90.62304 9.09179,0 0,-108.54297 z m -96.57226,46.31641 -0.0449,0.11328 0.1582,0 c -0.0378,-0.0376 -0.0755,-0.0757 -0.11328,-0.11328 z m -2.70508,7.03516 c -0.0207,0.0544 -0.0418,0.10579 -0.0625,0.16015 9.26712,9.08922 18.6947,18.15206 27.89648,26.90821 8.97119,-9.24675 17.68099,-18.10257 26.54493,-27.00586 -0.008,-0.0211 -0.0154,-0.0414 -0.0234,-0.0625 l -9.63672,0 c -5.8011,5.74668 -11.2187,11.10891 -17.44727,17.26172 -5.97019,-5.85312 -11.77116,-11.56945 -17.51367,-17.26172 l -9.75781,0 z"
             style="font-style:normal;font-variant:normal;font-weight:300;font-stretch:normal;font-size:92.88051605px;line-height:125%;font-family:'Josefin Sans';-inkscape-font-specification:'Josefin Sans Light';letter-spacing:0px;word-spacing:0px;fill:#4d4d4d;fill-opacity:0.98039216;stroke:none;stroke-width:1px;stroke-linecap:butt;stroke-linejoin:miter;stroke-opacity:1" />
          <path
             inkscape:connector-curvature="0"
             id="path6872"
             d="m 275.375,444.88867 c -0.0151,0.0397 -0.0298,0.0775 -0.0449,0.11719 l 27.80078,27.39258 26.61719,-27.49414 c -0.002,-0.005 -0.004,-0.0103 -0.006,-0.0156 l -54.36719,0 z"
             style="opacity:1;fill:#4d4d4d;fill-opacity:1;stroke:none;stroke-width:1.58434784;stroke-linecap:round;stroke-miterlimit:4;stroke-dasharray:none;stroke-dashoffset:0;stroke-opacity:1" />
        </g>
        <path
           inkscape:connector-curvature="0"
           style="opacity:1;fill:#00ccff;fill-opacity:1;stroke:none;stroke-width:1.58434784;stroke-linecap:round;stroke-miterlimit:4;stroke-dasharray:none;stroke-dashoffset:0;stroke-opacity:1"
           d="m 302.74609,374.68555 -24.70507,63.26562 49.0332,0 -23.63477,-61.46875 -0.69336,-1.79687 z"
           id="path6874" />
      </g>
    </g>
  </g>
</svg>
