<?xml version="1.0" encoding="UTF-8" standalone="no"?>
<!-- Created with Inkscape (http://www.inkscape.org/) -->

<svg
   xmlns:dc="http://purl.org/dc/elements/1.1/"
   xmlns:cc="http://creativecommons.org/ns#"
   xmlns:rdf="http://www.w3.org/1999/02/22-rdf-syntax-ns#"
   xmlns:svg="http://www.w3.org/2000/svg"
   xmlns="http://www.w3.org/2000/svg"
   xmlns:sodipodi="http://sodipodi.sourceforge.net/DTD/sodipodi-0.dtd"
   xmlns:inkscape="http://www.inkscape.org/namespaces/inkscape"
   width="242.59889mm"
   height="120.58828mm"
   viewBox="0 0 859.60237 427.2813"
   id="svg2"
   version="1.1"
   inkscape:version="0.91 r13725"
   sodipodi:docname="logo.svg">
  <defs
     id="defs4" />
  <sodipodi:namedview
     id="base"
     pagecolor="#ffffff"
     bordercolor="#666666"
     borderopacity="1.0"
     inkscape:pageopacity="0.0"
     inkscape:pageshadow="2"
     inkscape:zoom="1.0823354"
     inkscape:cx="450.95729"
     inkscape:cy="149.4875"
     inkscape:document-units="px"
     inkscape:current-layer="layer1"
     showgrid="false"
     inkscape:window-width="1440"
     inkscape:window-height="851"
     inkscape:window-x="0"
     inkscape:window-y="1"
     inkscape:window-maximized="1"
     fit-margin-top="0"
     fit-margin-left="0"
     fit-margin-right="0"
     fit-margin-bottom="0"
     showguides="false" />
  <metadata
     id="metadata7">
    <rdf:RDF>
      <cc:Work
         rdf:about="">
        <dc:format>image/svg+xml</dc:format>
        <dc:type
           rdf:resource="http://purl.org/dc/dcmitype/StillImage" />
        <dc:title />
      </cc:Work>
    </rdf:RDF>
  </metadata>
  <g
     inkscape:label="Layer 1"
     inkscape:groupmode="layer"
     id="layer1"
     transform="translate(-713.63377,-817.72107)">
    <circle
       style="opacity:1;fill:#80e5ff;fill-opacity:0.59500002;stroke:none;stroke-width:1.99450827;stroke-linecap:round;stroke-miterlimit:4;stroke-dasharray:3.98901633, 3.98901633;stroke-dashoffset:0;stroke-opacity:1"
       id="path4136"
       cx="1359.5955"
       cy="1031.3617"
       r="213.64066" />
    <g
       style="font-style:normal;font-weight:normal;font-size:141.96522522px;line-height:125%;font-family:Sans;letter-spacing:0px;word-spacing:0px;fill:#ff0066;fill-opacity:1;stroke:none;stroke-width:1px;stroke-linecap:butt;stroke-linejoin:miter;stroke-opacity:1"
       id="text4138">
      <path
         d="m 782.95272,1045.775 q 0,6.1001 0.27728,9.6353 0.34659,3.5353 0.97046,5.3376 0.69319,1.8023 1.73298,2.2875 1.03978,0.4853 2.42616,0.4853 1.87161,0 3.88186,-1.1785 2.01025,-1.1784 3.95118,-3.05 1.94094,-1.8716 3.67391,-4.1591 1.80229,-2.2876 3.25799,-4.4365 1.52502,-2.2182 2.5648,-4.0898 1.10911,-1.9409 1.66366,-2.9807 l 2.14888,-4.2978 2.84208,2.1489 -2.14889,4.2978 q -0.55455,1.0398 -1.80229,3.3966 -1.24774,2.2876 -3.11935,5.1296 -1.87161,2.7728 -4.22846,5.8228 -2.35684,2.9807 -5.06028,5.4762 -2.70344,2.4955 -5.68416,4.0898 -2.98071,1.5944 -6.10007,1.5944 -2.84207,0 -5.06028,-0.9705 -2.21821,-0.9705 -3.74322,-3.3966 -1.52502,-2.4955 -2.35685,-6.724 -0.76251,-4.2977 -0.76251,-10.883 0,-2.5648 0.0693,-4.8524 0.13864,-2.3568 0.3466,-5.6841 -3.53527,6.8626 -8.17964,13.2399 -4.57505,6.3773 -9.84329,11.299 -5.26824,4.9216 -11.02172,7.833 -5.68415,2.9808 -11.50694,2.9808 -3.67391,0 -7.00122,-1.3171 -3.32731,-1.3171 -5.89211,-4.0205 -2.5648,-2.7728 -4.08982,-7.0705 -1.52501,-4.2978 -1.52501,-10.2592 0,-9.5661 2.14888,-18.7855 2.07957,-9.2194 5.8228,-17.815 3.74322,-8.6648 8.8035,-16.49787 5.06029,-7.90236 10.88308,-14.6263 5.82279,-6.72394 12.20014,-12.13081 6.37734,-5.4762 12.75468,-9.35806 6.37735,-3.88187 12.4081,-5.96143 6.10007,-2.07957 11.36831,-2.07957 5.82279,0 9.28874,2.98071 3.46595,2.9114 3.46595,8.31828 0,3.60458 -1.4557,7.07053 -1.38638,3.39663 -3.74323,6.5853 -2.28752,3.11935 -5.26824,5.96143 -2.91139,2.77276 -5.89211,5.06029 -2.98071,2.2182 -5.82279,3.95118 -2.77276,1.66365 -4.78301,2.63412 l -2.07957,-2.84208 q 1.73298,-0.90115 3.95118,-2.49548 2.28753,-1.59434 4.57505,-3.74323 2.28753,-2.14888 4.43642,-4.71369 2.2182,-2.63412 3.95118,-5.47619 1.73297,-2.9114 2.77276,-5.96143 1.03978,-3.11936 1.03978,-6.16939 0,-2.98072 -1.59434,-4.92165 -1.52501,-2.01025 -4.99096,-2.01025 -4.08982,0 -8.87283,2.14889 -4.783,2.07957 -9.84329,5.96143 -5.06028,3.88186 -10.18989,9.28874 -5.06028,5.33756 -9.77397,11.85354 -4.71369,6.44667 -8.80351,13.86379 -4.0205,7.3478 -7.07053,15.3195 -2.98072,7.9024 -4.71369,16.1513 -1.73297,8.1796 -1.73297,16.29 0,3.7432 0.55455,6.9319 0.55455,3.1193 1.80229,5.4068 1.24774,2.2182 3.25799,3.466 2.01025,1.2477 4.99097,1.2477 3.74322,0 7.34781,-1.6636 3.60458,-1.733 7.00121,-4.6444 3.39663,-2.9114 6.51598,-6.7933 3.18868,-3.8818 5.96143,-8.3182 2.77276,-4.4364 5.12961,-9.0808 2.42616,-4.7137 4.29777,-9.2888 0.48524,-5.1989 1.10911,-9.9126 0.62387,-4.783 1.24774,-8.5262 0.62387,-3.7432 1.17842,-6.1694 0.55455,-2.49546 0.97046,-3.05002 0.27728,-0.48523 1.17843,-1.1091 0.90114,-0.62387 2.01025,-1.1091 1.17842,-0.55455 2.35684,-0.90115 1.17842,-0.41591 2.01025,-0.41591 2.07957,0 2.07957,2.07957 0,1.94093 -0.27728,4.50571 -0.27727,2.5648 -0.7625,5.3376 -0.48524,2.7727 -1.17843,5.6148 -0.62387,2.7728 -1.4557,5.1296 -0.55455,7.5558 -0.90114,14.557 -0.3466,6.9319 -0.3466,13.1706 z"
         style="font-style:normal;font-variant:normal;font-weight:normal;font-stretch:normal;font-family:Rochester;-inkscape-font-specification:Rochester;fill:#ff0066;fill-opacity:1;stroke:none"
         id="path4145" />
      <path
         d="m 808.80869,1040.784 0.69319,-1.4557 q 1.03979,-2.0795 1.87162,-4.2977 0.90114,-2.2182 1.52501,-4.1592 0.62387,-2.0102 0.97047,-3.5352 0.34659,-1.5944 0.48523,-2.4262 -1.80229,-0.208 -3.46595,-0.9012 -1.66365,-0.6931 -2.91139,-1.8716 -1.24774,-1.1784 -1.94093,-2.7727 -0.76251,-1.5944 -0.76251,-3.6046 0,-1.5943 0.55455,-2.8421 0.55455,-1.2477 1.52502,-2.0796 0.90114,-0.8318 2.07957,-1.2477 1.1091,-0.4852 2.35684,-0.4852 1.66366,0 2.9114,0.6932 1.24774,0.6932 2.07957,1.8716 0.83182,1.1091 1.24774,2.6341 0.41591,1.4557 0.41591,3.05 1.94093,0 4.15914,-0.5545 2.28752,-0.5546 4.57505,-1.1784 2.28752,-0.6932 4.50573,-1.2478 2.21821,-0.5545 4.08982,-0.5545 1.59434,0 2.5648,0.6931 0.97047,0.6239 0.97047,2.1489 0,1.1091 -0.69319,3.6739 -0.62387,2.5648 -1.59434,5.9615 -0.97046,3.3966 -2.14889,7.4171 -1.1091,3.9512 -2.07957,8.041 -0.97046,4.0205 -1.66365,7.833 -0.62387,3.8126 -0.62387,6.7933 0,3.7432 0.83183,5.0603 0.83182,1.317 2.98071,1.317 0.90115,0 2.21821,-0.7625 1.38638,-0.8318 3.32731,-3.1193 1.94093,-2.3569 4.57505,-6.6546 2.70344,-4.3671 6.23871,-11.4377 l 0.69318,-1.4557 2.84208,2.1489 -0.69319,1.4557 q -4.15913,8.3183 -7.41713,13.6559 -3.25799,5.3375 -6.03075,8.4569 -2.70343,3.1193 -5.1296,4.3671 -2.42616,1.1784 -4.85233,1.1784 -4.08981,0 -6.65462,-3.1194 -2.5648,-3.1193 -2.5648,-9.6353 0,-3.5353 0.97047,-7.3478 0.97046,-3.8126 2.42616,-7.5558 1.4557,-3.8125 3.25799,-7.4864 1.8023,-3.6739 3.39663,-6.9319 1.66366,-3.3273 2.98072,-6.1694 1.31706,-2.8421 1.87161,-4.991 l -0.41591,-0.4159 q -1.10911,0 -2.98072,1.1784 -1.87161,1.1785 -4.22846,2.7035 -2.28752,1.4557 -4.92164,2.7727 -2.63412,1.3171 -5.33756,1.5944 -0.13864,0.9704 -0.62387,2.842 -0.41592,1.8717 -1.17842,4.1592 -0.76251,2.2875 -1.73298,4.7137 -0.97046,2.4261 -2.01025,4.575 l -0.69319,1.4557 -2.84208,-2.1489 z m 3.39663,-27.7969 q -0.62387,0 -1.03978,0.4159 -0.41591,0.416 -0.41591,0.9705 0,0.8318 0.41591,1.4557 0.41591,0.5546 1.03978,0.9705 0.62387,0.3466 1.24775,0.5545 0.69318,0.1387 1.17842,0.1387 0,-1.941 -0.62387,-3.1887 -0.62387,-1.3171 -1.8023,-1.3171 z"
         style="font-style:normal;font-variant:normal;font-weight:normal;font-stretch:normal;font-family:Rochester;-inkscape-font-specification:Rochester;fill:#ff0066;fill-opacity:1;stroke:none"
         id="path4147" />
      <path
         d="m 851.37054,1047.8546 q 0,-7.3478 0.55455,-14.765 0.55455,-7.4171 1.4557,-15.0422 l -6.30803,0 0.76251,-4.2284 6.10007,0 q 0.97046,-7.0706 1.94093,-14.14111 1.03978,-7.13985 1.87161,-14.2797 l 7.07053,0 q -0.13863,1.52501 -0.41591,4.43641 -0.20796,2.84208 -0.55455,6.65462 -0.27728,3.74318 -0.55455,8.24898 -0.27728,4.4364 -0.55455,9.0808 l 13.44787,0 -0.69319,4.2284 -13.03196,0 q -0.27728,3.9512 -0.48523,7.7637 -0.20796,3.8126 -0.41592,7.2785 -0.13864,3.3967 -0.20795,6.3081 -0.0693,2.842 -0.0693,4.9216 0,5.2682 0.27727,8.8035 0.3466,3.5353 0.97047,5.6842 0.69319,2.1489 1.66365,3.05 1.03979,0.9011 2.35685,0.9011 1.73297,0 3.81254,-1.7329 2.14889,-1.8023 4.43641,-4.783 2.28753,-2.9808 4.64437,-6.9319 2.35685,-4.0205 4.57506,-8.5263 l 0.69318,-1.4557 2.84208,2.1489 -0.69319,1.4557 q -3.18867,6.4467 -6.37734,11.5763 -3.11935,5.1296 -6.16939,8.7342 -3.05003,3.5352 -5.96143,5.4762 -2.9114,1.8716 -5.61483,1.8716 -2.70344,0 -4.85233,-1.2478 -2.07957,-1.2477 -3.53527,-3.9511 -1.4557,-2.7728 -2.21821,-7.0706 -0.7625,-4.2977 -0.7625,-10.4671 z"
         style="font-style:normal;font-variant:normal;font-weight:normal;font-stretch:normal;font-family:Rochester;-inkscape-font-specification:Rochester;fill:#ff0066;fill-opacity:1;stroke:none"
         id="path4149" />
      <path
         d="m 905.09272,1062.7581 q 2.42617,0 4.92165,-1.2477 2.5648,-1.2477 5.1296,-3.8819 2.63412,-2.6341 5.40688,-6.7932 2.77276,-4.2285 5.68416,-10.0513 l 0.69319,-1.4557 2.84207,2.1489 -0.69319,1.4557 q -3.74322,7.4172 -7.48644,12.6854 -3.67391,5.2682 -7.2785,8.5955 -3.53526,3.3274 -7.00121,4.8524 -3.46595,1.525 -6.65462,1.525 -4.50573,0 -8.041,-1.8716 -3.53527,-1.8716 -5.96143,-5.0603 -2.42616,-3.258 -3.6739,-7.4865 -1.31706,-4.2977 -1.31706,-9.0114 0,-7.4865 2.07956,-13.5865 2.01025,-6.1694 5.40688,-10.5365 3.46595,-4.3671 7.83305,-6.7933 4.36709,-2.4261 9.08078,-2.4261 4.78301,0 7.27849,2.4261 2.5648,2.4262 2.5648,6.1001 0,3.5353 -2.01025,6.6546 -2.01025,3.05 -5.4762,6.0308 -3.39663,2.9114 -7.90236,5.8228 -4.50573,2.842 -9.49669,5.8921 0.48523,3.6046 1.66365,6.5853 1.17842,2.9114 2.98072,5.0602 1.80229,2.0796 4.15913,3.258 2.35685,1.1091 5.26824,1.1091 z m 2.14889,-38.3333 q 0,-2.7728 -1.52502,-4.3671 -1.45569,-1.5944 -3.60458,-1.5944 -1.80229,0 -3.81254,1.3171 -2.01025,1.2477 -3.67391,4.0898 -1.66365,2.7728 -2.77276,7.1399 -1.1091,4.3671 -1.1091,10.6058 l 0,1.5943 q 2.35684,-1.2477 5.19892,-3.258 2.9114,-2.0796 5.40688,-4.575 2.49548,-2.4955 4.15914,-5.2683 1.73297,-2.8421 1.73297,-5.6841 z"
         style="font-style:normal;font-variant:normal;font-weight:normal;font-stretch:normal;font-family:Rochester;-inkscape-font-specification:Rochester;fill:#ff0066;fill-opacity:1;stroke:none"
         id="path4151" />
      <path
         d="m 967.27184,1046.4682 q 0,4.7137 -1.4557,9.0808 -1.38638,4.2977 -4.15914,7.6944 -2.70344,3.3273 -6.79326,5.3375 -4.0205,2.0103 -9.21942,2.0103 -3.74322,0 -6.72394,-1.1784 -2.91139,-1.2478 -4.99096,-3.258 -2.07957,-2.0796 -3.18867,-4.6444 -1.10911,-2.6341 -1.10911,-5.4069 0,-2.7727 1.03979,-5.1296 1.1091,-2.4261 2.91139,-4.0898 1.87162,-1.733 4.22846,-2.7034 2.35684,-0.9705 4.99097,-0.9705 1.66365,0 3.46594,0.4159 l 0,2.0103 q -2.2182,0 -4.36709,0.9011 -2.07957,0.9012 -3.74322,2.4955 -1.59434,1.525 -2.56481,3.7432 -0.97046,2.1489 -0.97046,4.6444 0,4.575 3.11935,7.3478 3.18867,2.7034 8.66487,2.7034 2.77276,0 5.06028,-1.0398 2.28753,-1.1091 3.88187,-2.9807 1.66365,-1.9409 2.49548,-4.575 0.90115,-2.6341 0.90115,-5.7535 0,-2.9807 -1.17843,-5.5455 -1.17842,-2.5648 -3.11935,-4.8523 -1.94093,-2.2876 -4.43641,-4.2978 -2.42617,-2.0103 -4.99097,-3.8126 -2.49548,-1.8716 -4.92164,-3.6045 -2.42617,-1.733 -4.22846,-3.466 l -6.9319,15.3888 -2.84207,-2.1489 7.07053,-15.4581 q -2.5648,-2.4262 -3.81254,-4.575 -1.17842,-2.2183 -1.17842,-5.2683 0,-1.6636 0.55455,-3.1193 0.62387,-1.5251 1.59433,-2.5648 1.03979,-1.1091 2.35685,-1.733 1.31706,-0.6239 2.77276,-0.6239 2.63412,0 3.95118,1.525 1.31706,1.4557 1.31706,3.6739 0,1.0398 -0.20796,2.2182 -0.20796,1.1091 -0.55455,2.2876 -0.27728,1.1091 -0.62387,2.0795 -0.27728,0.9705 -0.48524,1.6637 2.07957,1.5943 4.99097,3.1193 2.9114,1.4557 6.03075,3.0501 3.18867,1.5943 6.30802,3.4659 3.11936,1.8716 5.54552,4.1592 2.49548,2.2875 4.0205,5.1989 1.52502,2.9114 1.52502,6.5853 z m -31.67877,-35.9072 q -0.97046,0 -1.59433,0.6932 -0.55455,0.6238 -0.55455,1.7329 0,1.2478 0.62387,2.7728 0.62387,1.525 2.2182,2.9807 0.69319,-1.4557 1.03979,-2.8421 0.41591,-1.3864 0.41591,-2.7727 0,-1.1091 -0.62387,-1.8023 -0.55455,-0.7625 -1.52502,-0.7625 z"
         style="font-style:normal;font-variant:normal;font-weight:normal;font-stretch:normal;font-family:Rochester;-inkscape-font-specification:Rochester;fill:#ff0066;fill-opacity:1;stroke:none"
         id="path4153" />
      <path
         d="m 1015.1019,1053.4001 q 0,3.9512 0.6932,6.6546 0.6932,2.7034 2.4262,2.7034 1.0398,0 2.2182,-0.9704 1.2477,-1.0398 2.8421,-3.3273 1.5943,-2.2876 3.6045,-5.8921 2.0796,-3.6739 4.7137,-8.9422 l 2.0796,-4.2978 2.8421,2.1489 -2.0796,4.2978 q -2.9114,5.8228 -5.4762,10.4672 -2.4955,4.575 -4.783,7.7637 -2.2875,3.1887 -4.5057,4.9216 -2.1489,1.6637 -4.2978,1.6637 -2.2875,0 -3.8819,-1.2478 -1.525,-1.2477 -2.5648,-3.3966 -1.0397,-2.2182 -1.5943,-5.0603 -0.5546,-2.9114 -0.7625,-6.1694 -1.6637,3.3274 -3.6739,6.2388 -2.0103,2.842 -4.22847,4.9909 -2.14889,2.1489 -4.50573,3.3966 -2.35685,1.2478 -4.71369,1.2478 -3.46595,0 -6.72394,-1.4557 -3.25799,-1.4557 -5.82279,-4.4364 -2.49548,-2.9807 -4.0205,-7.4865 -1.52502,-4.575 -1.52502,-10.7444 0,-7.2092 1.87161,-13.1706 1.87161,-6.0308 5.06029,-10.3285 3.18867,-4.3671 7.34781,-6.724 4.15913,-2.4261 8.73419,-2.4261 2.77275,0 5.1296,1.2477 2.35684,1.2477 4.08984,3.05 1.8023,1.733 2.9807,3.7433 1.1784,1.9409 1.5943,3.3273 l 0.8319,-6.724 q 0.1386,-1.317 1.2477,-2.2182 1.1784,-0.9011 2.5648,-1.3864 1.3864,-0.5545 2.7034,-0.7625 1.3171,-0.2772 1.8716,-0.2772 0.8319,0 1.1092,0.2772 0.2772,0.2773 0.2772,1.1091 0,1.0398 -0.6238,4.2285 -0.5546,3.1193 -1.2478,8.041 -0.6239,4.8523 -1.2477,11.4376 -0.5546,6.5853 -0.5546,14.4877 z m -7.6251,-18.3002 q 0,-3.1887 -0.9704,-6.2387 -0.9705,-3.1194 -2.6341,-5.4762 -1.6637,-2.4262 -3.88191,-3.8819 -2.14889,-1.4557 -4.57505,-1.4557 -2.98072,0 -5.61484,1.733 -2.5648,1.6636 -4.50573,4.783 -1.87161,3.05 -2.98071,7.4171 -1.10911,4.2978 -1.10911,9.4967 0,10.3979 3.25799,15.8741 3.258,5.4068 8.66487,5.4068 2.35685,0 4.85233,-1.8716 2.56476,-1.9409 4.64436,-5.4762 2.1489,-3.6046 3.466,-8.7342 1.3863,-5.1296 1.3863,-11.5762 z"
         style="font-style:normal;font-variant:normal;font-weight:normal;font-stretch:normal;font-family:Rochester;-inkscape-font-specification:Rochester;fill:#ff0066;fill-opacity:1;stroke:none"
         id="path4155" />
      <path
         d="m 1060.5058,1018.602 q -1.9409,0 -4.3671,1.7329 -2.3568,1.733 -4.783,4.5058 -2.4261,2.7034 -4.7137,6.1 -2.2182,3.3967 -3.8818,6.724 -0.208,6.1 -0.4159,13.3092 -0.1387,7.2092 -0.1387,15.3888 0,1.0398 -0.9704,1.8716 -0.9012,0.7626 -2.1489,1.3171 -1.2478,0.4852 -2.5648,0.7625 -1.3171,0.2773 -2.1489,0.2773 -1.0398,0 -1.941,-0.6239 -0.9011,-0.6239 -0.9011,-2.7727 0,-1.0398 0.208,-2.5648 0.2079,-1.5944 0.5545,-3.3967 0.2773,-1.8023 0.6932,-3.6739 0.3466,-1.9409 0.6932,-3.6046 l 0,-33.8969 q 0,-1.3864 0.069,-2.1489 0,-0.8318 0.208,-1.2478 0.4159,-0.9704 1.4557,-1.525 1.0397,-0.5545 2.2182,-0.8318 1.1784,-0.3466 2.2875,-0.4159 1.1091,-0.069 1.733,-0.069 1.1784,0 1.5943,0.6238 0.4852,0.6239 0.4852,2.2182 0,-0.2079 -0.3466,3.3967 -0.2772,3.6046 -0.4852,10.3285 2.0796,-3.258 4.5057,-6.2387 2.4262,-2.9807 5.0603,-5.2683 2.6341,-2.2875 5.4069,-3.6739 2.8421,-1.3863 5.7535,-1.3863 5.1989,0 7.6251,3.3273 2.4261,3.258 2.4261,8.8728 0,3.5353 -0.4852,7.9024 -0.4159,4.2977 -1.0398,8.8035 -0.5545,4.4364 -1.0398,8.7342 -0.4159,4.2284 -0.4159,7.7637 0,4.575 2.8421,4.575 0.9011,0 2.0796,-0.9011 1.2477,-0.9705 3.05,-3.5353 1.8716,-2.5648 4.4364,-7.0012 2.5648,-4.5057 6.1001,-11.5763 l 0.6932,-1.4557 2.842,2.1489 -0.6932,1.4557 q -4.1591,8.3183 -7.4171,13.6559 -3.1887,5.3375 -5.8228,8.4569 -2.6341,3.1193 -4.9216,4.3671 -2.2875,1.1784 -4.5751,1.1784 -1.4557,0 -2.9114,-0.4159 -1.4557,-0.4159 -2.5648,-1.4557 -1.1091,-1.0398 -1.8023,-2.7728 -0.6932,-1.8023 -0.6932,-4.575 0,-4.1592 0.5546,-9.3581 0.5546,-5.1989 1.2477,-10.3978 0.6932,-5.199 1.2478,-9.774 0.5545,-4.6444 0.5545,-7.5558 0,-2.5648 -1.1091,-4.0898 -1.1091,-1.5943 -3.3273,-1.5943 z"
         style="font-style:normal;font-variant:normal;font-weight:normal;font-stretch:normal;font-family:Rochester;-inkscape-font-specification:Rochester;fill:#ff0066;fill-opacity:1;stroke:none"
         id="path4157" />
      <path
         d="m 1147.917,1041.4772 -0.7625,1.4557 q -2.3568,4.7137 -6.308,7.5558 -3.8819,2.7727 -8.4569,3.6046 -1.2477,3.5352 -3.258,6.5853 -1.9409,2.9807 -4.5057,5.1989 -2.4955,2.2182 -5.6842,3.4659 -3.1193,1.2478 -6.7932,1.2478 -5.3376,0 -9.6354,-2.2182 -4.2284,-2.2875 -7.2091,-6.1001 -2.9808,-3.8819 -4.5751,-9.0115 -1.5943,-5.1989 -1.5943,-11.091 0,-5.1296 1.1784,-9.2887 1.1784,-4.2285 2.9807,-7.4865 1.8023,-3.3273 4.0205,-5.7534 2.2182,-2.4955 4.3671,-4.0899 2.1489,-1.5943 3.8819,-2.3568 1.8023,-0.8318 2.7034,-0.8318 l 0.9011,2.4261 q -2.842,2.0796 -5.0602,5.8228 -1.941,3.1887 -3.5353,8.4569 -1.525,5.2683 -1.525,13.1013 0,4.783 0.9011,9.2888 0.9012,4.5057 2.6341,7.9716 1.733,3.466 4.2285,5.5456 2.5648,2.0795 5.7535,2.0795 4.3671,0 7.2091,-3.4659 2.9114,-3.5353 4.2978,-9.6354 -3.6046,-0.7625 -6.8626,-2.842 -3.2579,-2.0796 -5.7534,-5.1296 -2.4955,-3.1194 -4.0205,-7.1399 -1.4557,-4.0205 -1.4557,-8.7342 0,-3.8818 0.9704,-6.7932 1.0398,-2.9808 2.7035,-4.9217 1.6636,-2.0102 3.8125,-2.9807 2.2182,-1.0398 4.6444,-1.0398 2.8421,0 5.8228,1.6637 2.9807,1.5943 5.4069,4.8523 2.4261,3.1887 3.9511,8.041 1.5251,4.8523 1.5251,11.299 0,2.4261 -0.2773,4.783 -0.2773,2.3568 -0.8318,4.575 3.3273,-0.9704 6.0307,-3.1193 2.7728,-2.1489 4.5751,-5.6842 l 0.7625,-1.4557 2.842,2.1489 z m -37.3629,-11.9228 q 0,4.0898 1.1091,7.5557 1.1785,3.3967 3.1194,6.0308 1.9409,2.5648 4.5057,4.2978 2.5648,1.7329 5.4762,2.4261 0.3466,-1.9409 0.4159,-4.0205 0.1387,-2.1489 0.1387,-4.3671 0,-4.9216 -0.7625,-8.8728 -0.7626,-4.0205 -2.0103,-6.7933 -1.2477,-2.842 -2.9114,-4.3671 -1.6636,-1.525 -3.3966,-1.525 -2.3569,0 -4.0205,2.5648 -1.6637,2.4955 -1.6637,7.0706 z"
         style="font-style:normal;font-variant:normal;font-weight:normal;font-stretch:normal;font-family:Rochester;-inkscape-font-specification:Rochester;fill:#ff0066;fill-opacity:1;stroke:none"
         id="path4159" />
      <path
         d="m 1216.6814,954.20466 q 13.7252,0 24.8162,4.43641 11.1604,4.36709 19.0627,12.20014 7.9024,7.83304 12.2002,18.6468 4.2978,10.81379 4.2978,23.63779 0,8.2489 -1.5944,15.9433 -1.5943,7.6944 -4.575,14.4877 -2.9807,6.7933 -7.3478,12.4081 -4.2978,5.6148 -9.774,9.7046 -5.4069,4.0205 -11.9229,6.2387 -6.4466,2.2183 -13.7944,2.2183 -7.4865,0 -15.1116,-1.3864 -7.6251,-1.3864 -15.1115,-2.9807 -2.5648,1.4557 -5.2683,2.4954 -2.7034,1.1091 -5.4068,1.8023 -2.7035,0.7625 -5.3376,1.1091 -2.5648,0.416 -4.8523,0.416 -6.9319,0 -10.5365,-1.5944 -3.6739,-1.5943 -3.6739,-4.783 0,-1.8716 1.0398,-3.3273 0.9704,-1.4557 3.3273,-2.4262 2.3568,-1.0398 6.1694,-1.525 3.7432,-0.5545 9.358,-0.5545 4.3671,0 8.5956,0.4852 4.2284,0.4159 8.3876,1.0398 l 1.8716,-1.9409 q 1.4557,-1.733 2.2182,-4.3671 0.7625,-2.7035 1.1091,-6.9319 0.3466,-4.2285 0.4159,-10.3286 0.069,-6.1694 0.069,-14.9035 0,-8.457 0.069,-14.4184 0.1386,-6.0307 0.5545,-10.32851 0.4159,-4.29777 1.2477,-7.27849 0.8319,-3.05003 2.2183,-5.54551 1.4557,-2.56481 3.6045,-4.99097 2.1489,-2.49548 5.1296,-5.68415 l 3.5353,3.11935 q -1.525,1.4557 -2.4262,3.60459 -0.8318,2.07956 -1.2477,4.99096 -0.4159,2.84208 -0.5545,6.51598 -0.069,3.60459 -0.069,8.17965 l 0,39.0266 q 0,4.5057 -0.9704,7.9023 -0.9705,3.3273 -2.6342,5.9615 -1.5943,2.6341 -3.6739,4.7136 -2.0795,2.0796 -4.2977,3.8819 4.0898,0.8318 7.9716,1.6637 3.8819,0.8318 7.4865,1.525 3.6739,0.6932 7.0012,1.1784 3.3966,0.4159 6.4467,0.4159 5.6841,0 10.1205,-2.4955 4.4365,-2.4955 7.6944,-6.7932 3.258,-4.3671 5.4762,-10.1899 2.2876,-5.8921 3.6739,-12.6161 1.3864,-6.7239 1.941,-14.0717 0.6238,-7.3478 0.6238,-14.557 0,-11.43762 -2.9113,-20.51841 -2.9114,-9.08078 -8.6649,-15.3888 -5.6842,-6.37735 -14.2104,-9.70466 -8.4569,-3.39663 -19.6173,-3.39663 -8.041,0 -14.0024,1.31706 -5.9614,1.24774 -10.2592,3.39663 -4.2285,2.07957 -6.9319,4.78301 -2.7034,2.70344 -4.2978,5.61484 -1.525,2.84207 -2.1489,5.68415 -0.5545,2.84208 -0.5545,5.19892 0,2.77276 0.4159,5.4762 0.4852,2.63412 1.8023,4.71369 1.3864,2.07957 3.8819,3.32731 2.4954,1.24774 6.6546,1.24774 1.3864,0 2.2875,-0.13864 0.9011,-0.20796 1.525,-0.48523 0.6932,-0.27728 1.1784,-0.62387 l 0.8319,4.08979 q -1.0398,0.7625 -3.5353,1.3171 -2.4262,0.5545 -5.2682,0.5545 -4.1592,0 -7.7638,-1.4557 -3.5352,-1.4557 -6.1694,-3.95114 -2.6341,-2.5648 -4.0898,-5.89211 -1.525,-3.32731 -1.525,-7.07053 0,-6.44667 3.3966,-12.20014 3.3967,-5.82279 9.4967,-10.18989 6.1001,-4.43641 14.4877,-7.00121 8.4569,-2.63412 18.4388,-2.63412 z m -42.5618,112.15804 q -1.1091,0 -2.3568,0.069 -1.2478,0.069 -2.2876,0.3466 -1.1091,0.2773 -1.8023,0.8319 -0.6931,0.5545 -0.6931,1.5943 0,1.3864 2.2875,2.0796 2.2875,0.6932 7.6944,0.6932 4.1591,0 7.9023,-0.9012 3.8126,-0.9011 7.1399,-2.6341 -4.5751,-0.8318 -9.0808,-1.4557 -4.5057,-0.6239 -8.8035,-0.6239 z"
         style="font-style:normal;font-variant:normal;font-weight:normal;font-stretch:normal;font-family:Rochester;-inkscape-font-specification:Rochester;fill:#ff0066;fill-opacity:1;stroke:none"
         id="path4161" />
      <path
         d="m 1289.1197,1040.0908 -0.6932,1.3864 -0.6931,1.4557 -2.8421,-2.1489 0.6932,-1.4557 q 1.7329,-3.5352 2.842,-7.0705 1.1785,-3.6046 1.8717,-6.7239 0.7625,-3.1194 1.2477,-5.4762 0.4852,-2.3569 0.9705,-3.3967 0.4159,-0.8318 1.1784,-1.317 0.8318,-0.5546 1.6636,-0.9012 0.9012,-0.3466 1.6637,-0.4852 0.8318,-0.1386 1.1784,-0.1386 1.525,0 2.0103,0.6238 0.5545,0.6239 0.5545,2.2182 0,0.7625 -0.3466,3.8126 -0.2772,2.9807 -0.6932,7.5557 -0.3466,4.5058 -0.6931,10.1899 -0.2773,5.6149 -0.2773,11.6456 0,4.3671 0.4159,6.9319 0.4159,2.4955 1.0398,3.7432 0.6932,1.2478 1.4557,1.5944 0.8318,0.3466 1.6636,0.3466 1.1091,0 2.4955,-0.9705 1.3864,-0.9705 3.258,-3.3966 1.8716,-2.4955 4.2978,-6.6546 2.4261,-4.2285 5.6841,-10.6752 l 0.7625,-1.4557 2.8421,2.1489 -0.7625,1.4557 q -2.6341,5.1296 -5.2682,10.1206 -2.5648,4.991 -5.2683,8.8728 -2.6341,3.8819 -5.3375,6.308 -2.7035,2.3569 -5.4069,2.3569 -2.8421,0 -4.9217,-1.1091 -2.0102,-1.1784 -3.3966,-3.8126 -1.317,-2.6341 -2.0102,-6.9319 -0.6239,-4.367 -0.6239,-10.7444 0,-1.8023 0,-3.7432 0,-2.0103 0.1386,-4.1592 l -0.6932,0 z m 14.2104,-40.48223 q 0,2.42613 -1.6636,4.08983 -1.5944,1.5943 -4.0205,1.5943 -2.3569,0 -4.0205,-1.5943 -1.6637,-1.6637 -1.6637,-4.08983 0,-2.35684 1.6637,-4.0205 1.6636,-1.66365 4.0205,-1.66365 2.4261,0 4.0205,1.66365 1.6636,1.66366 1.6636,4.0205 z"
         style="font-style:normal;font-variant:normal;font-weight:normal;font-stretch:normal;font-family:Rochester;-inkscape-font-specification:Rochester;fill:#ff0066;fill-opacity:1;stroke:none"
         id="path4163" />
      <path
         d="m 1339.3067,1096.8631 q 0,-3.0501 1.1091,-6.1694 1.1784,-3.1194 3.1886,-6.3774 2.0103,-3.258 4.6444,-6.7932 2.7034,-3.466 5.8228,-7.2092 l 0,-13.1013 q -1.6637,3.258 -3.7432,5.7535 -2.0796,2.4955 -4.4364,4.2285 -2.2876,1.6636 -4.783,2.5648 -2.4262,0.8318 -4.7831,0.8318 -3.2579,0 -6.308,-1.5943 -2.9807,-1.5944 -5.3375,-4.7831 -2.3569,-3.2579 -3.7433,-8.1796 -1.3863,-4.9216 -1.3863,-11.5763 0,-5.6148 1.317,-11.091 1.3171,-5.4762 3.9512,-9.774 2.6341,-4.3671 6.516,-7.0705 3.8818,-2.7034 9.0808,-2.7034 4.0898,0 7.6251,1.6636 3.6045,1.6637 6.0307,4.8523 l 0,-0.8318 q 0,-1.317 0.7625,-2.3568 0.8318,-1.1091 2.0103,-1.8023 1.2477,-0.7625 2.5648,-1.1091 1.3863,-0.4159 2.4261,-0.4159 1.1784,0 1.6637,0.3466 0.4852,0.2772 0.4852,1.0397 0,1.1091 -0.2773,4.991 -0.2772,3.8819 -0.2772,11.3683 l 0,30.0844 q 1.7329,-2.1488 3.6739,-4.783 1.9409,-2.6341 3.8818,-5.4762 1.941,-2.9114 3.7433,-5.9614 1.8716,-3.05 3.4659,-6.1001 l 0.6932,-1.3863 2.8421,2.1488 -0.6932,1.3864 q -1.6637,3.3273 -3.8819,6.9319 -2.1489,3.5353 -4.575,7.0012 -2.3569,3.3967 -4.783,6.5853 -2.3569,3.1194 -4.3671,5.6149 l 0,15.0422 q 0,6.3773 -1.1785,10.8137 -1.1091,4.5058 -3.1193,7.2785 -1.9409,2.8421 -4.7137,4.0899 -2.7034,1.2477 -5.8921,1.2477 -3.9512,0 -6.5853,-2.4955 -2.6341,-2.4262 -2.6341,-6.7239 z m 1.2477,-33.3424 q 2.1489,0 4.2285,-1.2478 2.1488,-1.2477 3.9511,-3.1887 1.8023,-1.9409 3.1887,-4.2284 1.4557,-2.3569 2.1489,-4.5751 l 0,-19.5479 q 0,-3.1194 -0.9705,-5.6148 -0.9704,-2.5649 -2.5648,-4.2978 -1.5943,-1.8023 -3.6739,-2.7728 -2.0102,-0.9704 -4.1591,-0.9704 -3.3273,0 -5.8228,2.0102 -2.4955,1.9409 -4.1591,5.1989 -1.6637,3.1887 -2.4955,7.3478 -0.7625,4.1592 -0.7625,8.4569 0,5.3376 0.6238,9.6354 0.6932,4.2978 2.0796,7.4171 1.3864,3.05 3.466,4.7137 2.0795,1.6637 4.9216,1.6637 z m 7.2092,38.3333 q 1.1091,0 2.2182,-0.4852 1.1784,-0.4159 2.0796,-2.0102 0.9011,-1.5944 1.4557,-4.7137 0.5545,-3.1194 0.5545,-8.4569 l 0,-10.3286 q -4.783,5.7535 -7.833,10.8831 -2.9808,5.1989 -2.9808,9.7047 0,2.1488 1.1785,3.7432 1.1784,1.6636 3.3273,1.6636 z"
         style="font-style:normal;font-variant:normal;font-weight:normal;font-stretch:normal;font-family:Rochester;-inkscape-font-specification:Rochester;fill:#ff0066;fill-opacity:1;stroke:none"
         id="path4165" />
      <path
         d="m 1382.5617,1040.0908 -0.6932,1.3864 -0.6932,1.4557 -2.8421,-2.1489 0.6932,-1.4557 q 1.733,-3.5352 2.8421,-7.0705 1.1784,-3.6046 1.8716,-6.7239 0.7625,-3.1194 1.2478,-5.4762 0.4852,-2.3569 0.9704,-3.3967 0.4159,-0.8318 1.1784,-1.317 0.8319,-0.5546 1.6637,-0.9012 0.9011,-0.3466 1.6637,-0.4852 0.8318,-0.1386 1.1784,-0.1386 1.525,0 2.0102,0.6238 0.5546,0.6239 0.5546,2.2182 0,0.7625 -0.3466,3.8126 -0.2773,2.9807 -0.6932,7.5557 -0.3466,4.5058 -0.6932,10.1899 -0.2773,5.6149 -0.2773,11.6456 0,4.3671 0.4159,6.9319 0.416,2.4955 1.0398,3.7432 0.6932,1.2478 1.4557,1.5944 0.8319,0.3466 1.6637,0.3466 1.1091,0 2.4955,-0.9705 1.3863,-0.9705 3.258,-3.3966 1.8716,-2.4955 4.2977,-6.6546 2.4262,-4.2285 5.6842,-10.6752 l 0.7625,-1.4557 2.8421,2.1489 -0.7625,1.4557 q -2.6342,5.1296 -5.2683,10.1206 -2.5648,4.991 -5.2682,8.8728 -2.6341,3.8819 -5.3376,6.308 -2.7034,2.3569 -5.4069,2.3569 -2.842,0 -4.9216,-1.1091 -2.0103,-1.1784 -3.3966,-3.8126 -1.3171,-2.6341 -2.0103,-6.9319 -0.6239,-4.367 -0.6239,-10.7444 0,-1.8023 0,-3.7432 0,-2.0103 0.1387,-4.1592 l -0.6932,0 z m 14.2104,-40.48223 q 0,2.42613 -1.6637,4.08983 -1.5943,1.5943 -4.0205,1.5943 -2.3568,0 -4.0205,-1.5943 -1.6636,-1.6637 -1.6636,-4.08983 0,-2.35684 1.6636,-4.0205 1.6637,-1.66365 4.0205,-1.66365 2.4262,0 4.0205,1.66365 1.6637,1.66366 1.6637,4.0205 z"
         style="font-style:normal;font-variant:normal;font-weight:normal;font-stretch:normal;font-family:Rochester;-inkscape-font-specification:Rochester;fill:#ff0066;fill-opacity:1;stroke:none"
         id="path4167" />
      <path
         d="m 1413.1314,1047.8546 q 0,-7.3478 0.5545,-14.765 0.5546,-7.4171 1.4557,-15.0422 l -6.308,0 0.7625,-4.2284 6.1001,0 q 0.9704,-7.0706 1.9409,-14.14111 1.0398,-7.13985 1.8716,-14.2797 l 7.0705,0 q -0.1386,1.52501 -0.4159,4.43641 -0.2079,2.84208 -0.5545,6.65462 -0.2773,3.74318 -0.5546,8.24898 -0.2773,4.4364 -0.5545,9.0808 l 13.4478,0 -0.6931,4.2284 -13.032,0 q -0.2773,3.9512 -0.4852,7.7637 -0.208,3.8126 -0.416,7.2785 -0.1386,3.3967 -0.2079,6.3081 -0.069,2.842 -0.069,4.9216 0,5.2682 0.2772,8.8035 0.3466,3.5353 0.9705,5.6842 0.6932,2.1489 1.6637,3.05 1.0397,0.9011 2.3568,0.9011 1.733,0 3.8125,-1.7329 2.1489,-1.8023 4.4365,-4.783 2.2875,-2.9808 4.6443,-6.9319 2.3569,-4.0205 4.5751,-8.5263 l 0.6932,-1.4557 2.8421,2.1489 -0.6932,1.4557 q -3.1887,6.4467 -6.3774,11.5763 -3.1193,5.1296 -6.1694,8.7342 -3.05,3.5352 -5.9614,5.4762 -2.9114,1.8716 -5.6148,1.8716 -2.7035,0 -4.8524,-1.2478 -2.0795,-1.2477 -3.5352,-3.9511 -1.4557,-2.7728 -2.2182,-7.0706 -0.7625,-4.2977 -0.7625,-10.4671 z"
         style="font-style:normal;font-variant:normal;font-weight:normal;font-stretch:normal;font-family:Rochester;-inkscape-font-specification:Rochester;fill:#ff0066;fill-opacity:1;stroke:none"
         id="path4169" />
      <path
         d="m 1488.4118,1053.4001 q 0,3.9512 0.6932,6.6546 0.6931,2.7034 2.4261,2.7034 1.0398,0 2.2182,-0.9704 1.2478,-1.0398 2.8421,-3.3273 1.5943,-2.2876 3.6046,-5.8921 2.0796,-3.6739 4.7137,-8.9422 l 2.0795,-4.2978 2.8421,2.1489 -2.0795,4.2978 q -2.9114,5.8228 -5.4762,10.4672 -2.4955,4.575 -4.783,7.7637 -2.2876,3.1887 -4.5058,4.9216 -2.1489,1.6637 -4.2978,1.6637 -2.2875,0 -3.8818,-1.2478 -1.525,-1.2477 -2.5648,-3.3966 -1.0398,-2.2182 -1.5944,-5.0603 -0.5545,-2.9114 -0.7625,-6.1694 -1.6636,3.3274 -3.6739,6.2388 -2.0102,2.842 -4.2284,4.9909 -2.1489,2.1489 -4.5058,3.3966 -2.3568,1.2478 -4.7136,1.2478 -3.466,0 -6.724,-1.4557 -3.258,-1.4557 -5.8228,-4.4364 -2.4955,-2.9807 -4.0205,-7.4865 -1.525,-4.575 -1.525,-10.7444 0,-7.2092 1.8716,-13.1706 1.8716,-6.0308 5.0603,-10.3285 3.1887,-4.3671 7.3478,-6.724 4.1591,-2.4261 8.7342,-2.4261 2.7728,0 5.1296,1.2477 2.3568,1.2477 4.0898,3.05 1.8023,1.733 2.9807,3.7433 1.1785,1.9409 1.5944,3.3273 l 0.8318,-6.724 q 0.1386,-1.317 1.2477,-2.2182 1.1785,-0.9011 2.5648,-1.3864 1.3864,-0.5545 2.7035,-0.7625 1.317,-0.2772 1.8716,-0.2772 0.8318,0 1.1091,0.2772 0.2773,0.2773 0.2773,1.1091 0,1.0398 -0.6239,4.2285 -0.5545,3.1193 -1.2477,8.041 -0.6239,4.8523 -1.2478,11.4376 -0.5545,6.5853 -0.5545,14.4877 z m -7.6251,-18.3002 q 0,-3.1887 -0.9705,-6.2387 -0.9704,-3.1194 -2.6341,-5.4762 -1.6637,-2.4262 -3.8819,-3.8819 -2.1489,-1.4557 -4.575,-1.4557 -2.9807,0 -5.6149,1.733 -2.5648,1.6636 -4.5057,4.783 -1.8716,3.05 -2.9807,7.4171 -1.1091,4.2978 -1.1091,9.4967 0,10.3979 3.258,15.8741 3.258,5.4068 8.6649,5.4068 2.3568,0 4.8523,-1.8716 2.5648,-1.9409 4.6444,-5.4762 2.1488,-3.6046 3.4659,-8.7342 1.3864,-5.1296 1.3864,-11.5762 z"
         style="font-style:normal;font-variant:normal;font-weight:normal;font-stretch:normal;font-family:Rochester;-inkscape-font-specification:Rochester;fill:#ff0066;fill-opacity:1;stroke:none"
         id="path4171" />
      <path
         d="m 1522.0314,1061.7877 q 1.2478,0 2.8421,-1.5944 1.6637,-1.6636 3.5353,-4.5057 1.8716,-2.8421 3.9512,-6.6546 2.0795,-3.8126 4.2977,-8.249 l 0.6932,-1.4557 2.8421,2.1489 -0.6932,1.4557 q -3.6739,7.3478 -6.5853,12.6161 -2.8421,5.1989 -5.3375,8.5955 -2.4955,3.3273 -4.783,4.9217 -2.2183,1.525 -4.5751,1.525 -3.1194,0 -5.4069,-2.0103 -2.2182,-2.0795 -3.7432,-6.8625 -1.4557,-4.8524 -2.1489,-12.7547 -0.7625,-7.9024 -0.7625,-19.548 0,-16.4979 1.3864,-28.2821 1.3864,-11.85355 3.7432,-19.40932 2.4262,-7.62508 5.5455,-11.16035 3.1887,-3.60459 6.6546,-3.60459 2.0796,0 3.466,1.73298 1.4557,1.66365 1.4557,6.10007 0,3.46594 -0.5546,7.90236 -0.5545,4.43641 -1.4557,9.4967 -0.9011,5.06028 -2.1488,10.53645 -1.2478,5.4069 -2.6342,10.8138 -1.3863,5.3375 -2.842,10.5365 -1.4557,5.1296 -2.8421,9.6353 0.4159,8.5262 0.9011,14.0024 0.5546,5.4069 1.2478,8.5263 0.7625,3.1193 1.7329,4.3671 0.9705,1.1784 2.2182,1.1784 z m 1.8717,-85.33166 q 0,-1.4557 -0.3466,-2.28752 -0.3466,-0.83183 -1.1091,-0.83183 -0.7626,0 -1.5251,2.14889 -0.7625,2.14888 -1.525,5.82279 -0.6932,3.6739 -1.317,8.52623 -0.5546,4.85233 -1.0398,10.3285 -0.4853,5.4069 -0.7625,11.0911 -0.2773,5.6841 -0.3466,10.9524 1.6636,-6.1001 3.05,-12.4775 1.4557,-6.4466 2.5648,-12.47737 1.1091,-6.03075 1.733,-11.36831 0.6239,-5.40688 0.6239,-9.42738 z"
         style="font-style:normal;font-variant:normal;font-weight:normal;font-stretch:normal;font-family:Rochester;-inkscape-font-specification:Rochester;fill:#ff0066;fill-opacity:1;stroke:none"
         id="path4173" />
    </g>
    <g
       style="font-style:normal;font-weight:normal;font-size:41.00242996px;line-height:125%;font-family:Sans;letter-spacing:0px;word-spacing:0px;fill:#ffffff;fill-opacity:1;stroke:#ffffff;stroke-width:0.88779134px;stroke-linecap:butt;stroke-linejoin:miter;stroke-opacity:1"
       id="text4142">
      <path
         d="m 732.03675,1134.8411 -2.78817,0 0,-11.9317 q 0,-3.6493 -1.27107,-5.4534 -1.23007,-1.8041 -3.64922,-1.8041 -1.18907,0 -2.37814,0.4921 -1.14807,0.451 -2.17313,1.271 -1.02506,0.8201 -1.8041,1.9271 -0.73805,1.1071 -1.10707,2.4192 l 0,13.0798 -2.78817,0 0,-29.9318 2.78817,0 0,13.4078 q 1.27108,-2.4192 3.52621,-3.8132 2.25513,-1.3941 4.87929,-1.3941 1.84511,0 3.11618,0.697 1.27108,0.6561 2.09113,1.8861 0.82005,1.1891 1.18907,2.9112 0.36902,1.6811 0.36902,3.7312 l 0,12.5058 z"
         style="font-style:normal;font-variant:normal;font-weight:normal;font-stretch:normal;font-family:Raleway;-inkscape-font-specification:Raleway;fill:#ffffff;stroke:#ffffff;stroke-width:0.88779134px"
         id="path4176" />
      <path
         d="m 747.16793,1135.2511 q -2.33714,0 -4.30526,-0.8611 -1.92711,-0.902 -3.3622,-2.4191 -1.43508,-1.5581 -2.25513,-3.5672 -0.77905,-2.0091 -0.77905,-4.3053 0,-2.2551 0.77905,-4.2232 0.82005,-2.0091 2.21413,-3.4852 1.43509,-1.5171 3.4032,-2.3782 1.96812,-0.902 4.26426,-0.902 2.33713,0 4.26425,0.902 1.96811,0.8611 3.3622,2.3782 1.39408,1.5171 2.17313,3.4852 0.77904,1.9681 0.77904,4.1822 0,0.328 0,0.6561 0,0.328 -0.041,0.451 l -18.28708,0 q 0.123,1.7221 0.77904,3.1982 0.69704,1.4351 1.76311,2.5011 1.06606,1.0661 2.41914,1.6811 1.39408,0.5741 2.95218,0.5741 1.02506,0 2.05012,-0.2871 1.02506,-0.287 1.88611,-0.779 0.86105,-0.492 1.55809,-1.1891 0.69704,-0.738 1.06606,-1.5991 l 2.41915,0.6561 q -0.49203,1.189 -1.39409,2.1731 -0.90205,0.9431 -2.09112,1.6811 -1.18907,0.697 -2.62415,1.0661 -1.43509,0.41 -2.99318,0.41 z m 7.87246,-12.2187 q -0.123,-1.7221 -0.82004,-3.1162 -0.65604,-1.4351 -1.72211,-2.4602 -1.02506,-1.025 -2.41914,-1.5991 -1.35308,-0.574 -2.91117,-0.574 -1.55809,0 -2.95218,0.574 -1.39408,0.5741 -2.46014,1.5991 -1.02506,1.0251 -1.6811,2.4602 -0.61504,1.4351 -0.73805,3.1162 l 15.70393,0 z"
         style="font-style:normal;font-variant:normal;font-weight:normal;font-stretch:normal;font-family:Raleway;-inkscape-font-specification:Raleway;fill:#ffffff;stroke:#ffffff;stroke-width:0.88779134px"
         id="path4178" />
      <path
         d="m 762.09025,1104.9093 2.78816,0 0,25.0935 q 0,1.189 0.65604,1.8861 0.65604,0.656 1.84511,0.656 0.45103,0 1.06607,-0.123 0.61503,-0.123 1.14806,-0.328 l 0.49203,2.2551 q -0.77904,0.3281 -1.92711,0.5331 -1.10707,0.205 -1.92712,0.205 -1.92711,0 -3.03418,-1.0661 -1.10706,-1.107 -1.10706,-3.0752 l 0,-26.0365 z"
         style="font-style:normal;font-variant:normal;font-weight:normal;font-stretch:normal;font-family:Raleway;-inkscape-font-specification:Raleway;fill:#ffffff;stroke:#ffffff;stroke-width:0.88779134px"
         id="path4180" />
      <path
         d="m 773.30185,1104.9093 2.78817,0 0,25.0935 q 0,1.189 0.65603,1.8861 0.65604,0.656 1.84511,0.656 0.45103,0 1.06607,-0.123 0.61503,-0.123 1.14806,-0.328 l 0.49203,2.2551 q -0.77904,0.3281 -1.92711,0.5331 -1.10707,0.205 -1.92711,0.205 -1.92712,0 -3.03418,-1.0661 -1.10707,-1.107 -1.10707,-3.0752 l 0,-26.0365 z"
         style="font-style:normal;font-variant:normal;font-weight:normal;font-stretch:normal;font-family:Raleway;-inkscape-font-specification:Raleway;fill:#ffffff;stroke:#ffffff;stroke-width:0.88779134px"
         id="path4182" />
      <path
         d="m 793.49298,1135.2511 q -2.33713,0 -4.26425,-0.8611 -1.92711,-0.902 -3.3622,-2.4191 -1.39408,-1.5171 -2.17313,-3.5262 -0.77904,-2.0091 -0.77904,-4.2233 0,-2.2551 0.77904,-4.2642 0.82005,-2.0091 2.21413,-3.5262 1.43509,-1.5171 3.3622,-2.4192 1.92712,-0.902 4.22325,-0.902 2.29614,0 4.22325,0.902 1.96812,0.9021 3.3622,2.4192 1.43509,1.5171 2.21413,3.5262 0.82005,2.0091 0.82005,4.2642 0,2.2142 -0.77904,4.2233 -0.77905,2.0091 -2.21413,3.5262 -1.39409,1.5171 -3.3622,2.4191 -1.92712,0.8611 -4.26426,0.8611 z m -7.74946,-10.9887 q 0,1.8041 0.61504,3.3622 0.61504,1.5171 1.6401,2.7062 1.06606,1.1481 2.46014,1.8041 1.43509,0.656 3.03418,0.656 1.5991,0 2.99318,-0.656 1.43509,-0.697 2.50115,-1.8451 1.06606,-1.1891 1.6811,-2.7472 0.61504,-1.5581 0.61504,-3.3622 0,-1.7631 -0.61504,-3.3212 -0.61504,-1.5991 -1.6811,-2.7471 -1.06606,-1.1891 -2.50115,-1.8451 -1.39408,-0.6971 -2.99318,-0.6971 -1.59909,0 -2.99317,0.6971 -1.39409,0.656 -2.46015,1.8451 -1.06606,1.189 -1.6811,2.7881 -0.61504,1.5581 -0.61504,3.3622 z"
         style="font-style:normal;font-variant:normal;font-weight:normal;font-stretch:normal;font-family:Raleway;-inkscape-font-specification:Raleway;fill:#ffffff;stroke:#ffffff;stroke-width:0.88779134px"
         id="path4184" />
      <path
         d="m 822.83855,1110.1166 q 3.03418,0 5.74034,1.1481 2.70616,1.107 4.75628,3.1982 2.05013,2.0501 3.2392,4.9202 1.18907,2.8702 1.18907,6.3554 0,0.5741 -0.082,1.5581 -0.041,0.9431 -0.24601,2.0091 -0.20501,1.0661 -0.61504,2.1732 -0.36902,1.107 -1.02506,2.0091 -0.65604,0.902 -1.6401,1.4351 -0.98405,0.574 -2.37814,0.574 -1.02506,0 -1.6811,-0.328 -0.61503,-0.287 -0.98406,-0.8201 -0.36902,-0.533 -0.53303,-1.189 -0.16401,-0.6971 -0.24601,-1.4351 -1.14807,1.1891 -2.95218,2.0501 -1.8041,0.8611 -3.97723,0.8611 -2.91117,0 -4.55127,-1.5171 -1.5991,-1.5581 -1.5991,-3.9773 0,-1.5581 0.65604,-2.6241 0.69704,-1.0661 1.76311,-1.6811 1.10706,-0.6561 2.46014,-0.9021 1.35308,-0.287 2.70616,-0.287 1.80411,0 3.15719,0.369 1.35308,0.328 2.05012,0.5741 0,-1.4761 -0.24601,-2.6652 -0.20502,-1.2301 -0.77905,-2.0911 -0.57403,-0.8611 -1.55809,-1.3531 -0.98406,-0.492 -2.50115,-0.492 -1.59909,0 -3.07518,0.533 -1.47609,0.492 -2.66516,1.3941 l -0.73804,-1.5991 q 1.47608,-0.9841 3.11618,-1.5581 1.6811,-0.574 3.60821,-0.574 2.25514,0 3.56722,0.779 1.35308,0.738 2.05012,1.9681 0.69704,1.1891 0.86105,2.7062 0.20501,1.4761 0.20501,2.9522 l 0,5.2893 q 0,0.902 0.041,1.6811 0.082,0.738 0.28702,1.271 0.24601,0.5331 0.65604,0.8611 0.45103,0.287 1.14807,0.287 1.27107,0 2.09112,-0.861 0.82005,-0.9021 1.31208,-2.1732 0.49203,-1.271 0.65604,-2.7061 0.20501,-1.4761 0.20501,-2.5832 0,-2.9522 -1.02506,-5.5353 -1.02506,-2.5832 -2.87017,-4.4693 -1.80411,-1.9271 -4.26425,-3.0342 -2.46015,-1.107 -5.33032,-1.107 -2.78816,0 -5.28931,1.066 -2.46015,1.0251 -4.34626,2.8702 -1.84511,1.8451 -2.95218,4.3873 -1.06606,2.5421 -1.06606,5.5763 0,2.9112 1.02506,5.4943 1.02506,2.5422 2.78817,4.4283 1.8041,1.9271 4.26425,2.9932 2.46015,1.107 5.37132,1.107 1.7631,0 3.23919,-0.41 1.51709,-0.41 3.03418,-1.1481 l 0.53303,1.3121 q -1.6811,0.8201 -3.4032,1.2301 -1.7221,0.41 -3.4442,0.41 -3.07519,0 -5.78135,-1.148 -2.70616,-1.1481 -4.75628,-3.2392 -2.00912,-2.0502 -3.19819,-4.8793 -1.14807,-2.8292 -1.14807,-6.1504 0,-3.4852 1.23008,-6.2734 1.27107,-2.8291 3.3622,-4.8383 2.13212,-2.0091 4.87929,-3.0751 2.74716,-1.1071 5.69933,-1.1071 z m 2.50115,21.8543 q 1.7221,-0.8201 2.17313,-1.9271 0.49203,-1.1071 0.49203,-2.2552 l 0,-1.6401 q -0.53303,-0.082 -1.92712,-0.492 -1.35308,-0.41 -3.32119,-0.41 -1.06607,0 -2.09113,0.205 -1.02506,0.164 -1.8041,0.615 -0.77905,0.4511 -1.27108,1.1891 -0.45102,0.6971 -0.45102,1.8041 0,1.7221 1.23007,2.7882 1.23007,1.025 3.15719,1.025 1.02506,0 2.00911,-0.246 1.02506,-0.287 1.80411,-0.656 z"
         style="font-style:normal;font-variant:normal;font-weight:normal;font-stretch:normal;font-family:Raleway;-inkscape-font-specification:Raleway;fill:#ffffff;stroke:#ffffff;stroke-width:0.88779134px"
         id="path4186" />
      <path
         d="m 848.5426,1135.2511 q -1.51709,0 -2.82917,-0.492 -1.27107,-0.5331 -2.25513,-1.4351 -0.94306,-0.9021 -1.47609,-2.0911 -0.53303,-1.2301 -0.53303,-2.6242 0,-1.3941 0.65604,-2.5832 0.65604,-1.189 1.84511,-2.0501 1.18907,-0.861 2.82917,-1.3121 1.64009,-0.492 3.60821,-0.492 1.6401,0 3.3212,0.287 1.6811,0.287 2.99317,0.8201 l 0,-1.9271 q 0,-2.8292 -1.59909,-4.4693 -1.5991,-1.6811 -4.42826,-1.6811 -1.6401,0 -3.3622,0.656 -1.7221,0.6561 -3.48521,1.8862 l -0.98406,-1.8452 q 4.14125,-2.7881 8.03648,-2.7881 4.01824,0 6.31437,2.2551 2.29614,2.2551 2.29614,6.2324 l 0,9.6356 q 0,1.148 1.02506,1.148 l 0,2.4602 q -0.69704,0.123 -1.06606,0.123 -1.06607,0 -1.6811,-0.5331 -0.57404,-0.533 -0.61504,-1.476 l -0.082,-1.6811 q -1.47609,1.9271 -3.73123,2.9521 -2.21413,1.0251 -4.79728,1.0251 z m 0.65604,-2.1321 q 2.17313,0 3.97724,-0.8201 1.8451,-0.82 2.78816,-2.1731 0.36902,-0.369 0.53303,-0.7791 0.20501,-0.451 0.20501,-0.82 l 0,-3.4852 q -1.39408,-0.533 -2.91117,-0.8201 -1.47609,-0.287 -3.03418,-0.287 -2.95217,0 -4.79728,1.2301 -1.84511,1.2301 -1.84511,3.2392 0,0.984 0.36902,1.8451 0.41002,0.861 1.06606,1.5171 0.69704,0.615 1.6401,0.984 0.94306,0.3691 2.00912,0.3691 z"
         style="font-style:normal;font-variant:normal;font-weight:normal;font-stretch:normal;font-family:Raleway;-inkscape-font-specification:Raleway;fill:#ffffff;stroke:#ffffff;stroke-width:0.88779134px"
         id="path4188" />
      <path
         d="m 876.17502,1115.9389 q -2.82916,0.082 -4.92029,1.5581 -2.09112,1.4761 -2.95217,4.0593 l 0,13.2848 -2.78817,0 0,-21.3623 2.62416,0 0,5.1253 q 1.18907,-2.4601 3.19819,-3.8542 2.00912,-1.3941 4.30525,-1.3941 0.32802,0 0.53303,0.041 l 0,2.5421 z"
         style="font-style:normal;font-variant:normal;font-weight:normal;font-stretch:normal;font-family:Raleway;-inkscape-font-specification:Raleway;fill:#ffffff;stroke:#ffffff;stroke-width:0.88779134px"
         id="path4190" />
      <path
         d="m 890.09984,1133.816 q -0.24602,0.123 -0.73805,0.328 -0.45102,0.205 -1.06606,0.41 -0.61504,0.2051 -1.39408,0.3691 -0.77905,0.164 -1.6401,0.164 -0.90205,0 -1.7221,-0.246 -0.82005,-0.2461 -1.43509,-0.7381 -0.61503,-0.533 -0.98405,-1.3121 -0.36903,-0.779 -0.36903,-1.8041 l 0,-15.2939 -2.95217,0 0,-2.2141 2.95217,0 0,-7.2164 2.78817,0 0,7.2164 4.92029,0 0,2.2141 -4.92029,0 0,14.5149 q 0.082,1.1891 0.82005,1.7631 0.77904,0.533 1.7631,0.533 1.18907,0 2.09113,-0.369 0.90205,-0.41 1.14806,-0.574 l 0.73805,2.2551 z"
         style="font-style:normal;font-variant:normal;font-weight:normal;font-stretch:normal;font-family:Raleway;-inkscape-font-specification:Raleway;fill:#ffffff;stroke:#ffffff;stroke-width:0.88779134px"
         id="path4192" />
      <path
         d="m 900.30687,1135.2511 q -3.4852,0 -5.20731,-2.2961 -1.6811,-2.3372 -1.6811,-6.9295 l 0,-12.5467 2.78817,0 0,12.0547 q 0,7.2574 4.96129,7.2574 1.23008,0 2.41915,-0.41 1.18907,-0.41 2.17313,-1.1891 1.02506,-0.779 1.8041,-1.8451 0.82005,-1.066 1.31208,-2.4191 l 0,-13.4488 2.78817,0 0,17.7541 q 0,1.148 0.98405,1.148 l 0,2.4602 q -0.49203,0.082 -0.82004,0.082 -0.28702,0 -0.41003,0 -0.98406,-0.041 -1.59909,-0.6971 -0.61504,-0.656 -0.61504,-1.7631 l 0,-2.4601 q -1.39408,2.5011 -3.81323,3.8952 -2.37814,1.3531 -5.0843,1.3531 z"
         style="font-style:normal;font-variant:normal;font-weight:normal;font-stretch:normal;font-family:Raleway;-inkscape-font-specification:Raleway;fill:#ffffff;stroke:#ffffff;stroke-width:0.88779134px"
         id="path4194" />
      <path
         d="m 928.62931,1115.9389 q -2.82917,0.082 -4.92029,1.5581 -2.09113,1.4761 -2.95218,4.0593 l 0,13.2848 -2.78816,0 0,-21.3623 2.62415,0 0,5.1253 q 1.18907,-2.4601 3.19819,-3.8542 2.00912,-1.3941 4.30526,-1.3941 0.32802,0 0.53303,0.041 l 0,2.5421 z"
         style="font-style:normal;font-variant:normal;font-weight:normal;font-stretch:normal;font-family:Raleway;-inkscape-font-specification:Raleway;fill:#ffffff;stroke:#ffffff;stroke-width:0.88779134px"
         id="path4196" />
      <path
         d="m 940.36498,1135.2511 q -2.33714,0 -4.26426,-0.8611 -1.92711,-0.902 -3.36219,-2.4191 -1.39409,-1.5171 -2.17313,-3.5262 -0.77905,-2.0091 -0.77905,-4.2233 0,-2.2551 0.77905,-4.2642 0.82005,-2.0091 2.21413,-3.5262 1.43508,-1.5171 3.3622,-2.4192 1.92711,-0.902 4.22325,-0.902 2.29613,0 4.22325,0.902 1.96811,0.9021 3.3622,2.4192 1.43508,1.5171 2.21413,3.5262 0.82005,2.0091 0.82005,4.2642 0,2.2142 -0.77905,4.2233 -0.77905,2.0091 -2.21413,3.5262 -1.39408,1.5171 -3.3622,2.4191 -1.92711,0.8611 -4.26425,0.8611 z m -7.74946,-10.9887 q 0,1.8041 0.61503,3.3622 0.61504,1.5171 1.6401,2.7062 1.06607,1.1481 2.46015,1.8041 1.43508,0.656 3.03418,0.656 1.59909,0 2.99317,-0.656 1.43509,-0.697 2.50115,-1.8451 1.06607,-1.1891 1.6811,-2.7472 0.61504,-1.5581 0.61504,-3.3622 0,-1.7631 -0.61504,-3.3212 -0.61503,-1.5991 -1.6811,-2.7471 -1.06606,-1.1891 -2.50115,-1.8451 -1.39408,-0.6971 -2.99317,-0.6971 -1.5991,0 -2.99318,0.6971 -1.39408,0.656 -2.46015,1.8451 -1.06606,1.189 -1.6811,2.7881 -0.61503,1.5581 -0.61503,3.3622 z"
         style="font-style:normal;font-variant:normal;font-weight:normal;font-stretch:normal;font-family:Raleway;-inkscape-font-specification:Raleway;fill:#ffffff;stroke:#ffffff;stroke-width:0.88779134px"
         id="path4198" />
      <path
         d="m 987.46458,1134.8411 -2.78816,0 0,-11.9317 q 0,-3.7313 -1.18907,-5.4944 -1.18907,-1.7631 -3.52621,-1.7631 -1.23007,0 -2.33714,0.4511 -1.06606,0.451 -2.00912,1.271 -0.90205,0.8201 -1.59909,1.9681 -0.69704,1.1071 -1.06607,2.4602 l 0,13.0388 -2.78816,0 0,-11.9317 q 0,-3.8133 -1.14807,-5.5354 -1.14807,-1.7221 -3.52621,-1.7221 -2.41914,0 -4.30525,1.6811 -1.88612,1.6811 -2.70616,4.4283 l 0,13.0798 -2.78817,0 0,-21.3623 2.54215,0 0,4.8383 q 1.31208,-2.4602 3.44421,-3.8132 2.13212,-1.3941 4.71527,-1.3941 2.70617,0 4.30526,1.5171 1.6401,1.5171 2.00912,3.9772 2.99318,-5.4943 8.24149,-5.4943 1.8041,0 3.03418,0.656 1.27107,0.6561 2.00912,1.8861 0.77904,1.1891 1.10706,2.9112 0.36902,1.6811 0.36902,3.7722 l 0,12.5058 z"
         style="font-style:normal;font-variant:normal;font-weight:normal;font-stretch:normal;font-family:Raleway;-inkscape-font-specification:Raleway;fill:#ffffff;stroke:#ffffff;stroke-width:0.88779134px"
         id="path4200" />
      <path
         d="m 1002.4292,1135.2511 q -2.3372,0 -4.26427,-0.8611 -1.92711,-0.902 -3.3622,-2.4191 -1.39408,-1.5171 -2.17312,-3.5262 -0.77905,-2.0091 -0.77905,-4.2233 0,-2.2551 0.77905,-4.2642 0.82004,-2.0091 2.21413,-3.5262 1.43508,-1.5171 3.3622,-2.4192 1.92716,-0.902 4.22326,-0.902 2.2961,0 4.2232,0.902 1.9682,0.9021 3.3622,2.4192 1.4351,1.5171 2.2142,3.5262 0.82,2.0091 0.82,4.2642 0,2.2142 -0.779,4.2233 -0.7791,2.0091 -2.2142,3.5262 -1.394,1.5171 -3.3622,2.4191 -1.9271,0.8611 -4.2642,0.8611 z m -7.74947,-10.9887 q 0,1.8041 0.61503,3.3622 0.61504,1.5171 1.6401,2.7062 1.06606,1.1481 2.46015,1.8041 1.43509,0.656 3.03419,0.656 1.5991,0 2.9932,-0.656 1.435,-0.697 2.5011,-1.8451 1.0661,-1.1891 1.6811,-2.7472 0.615,-1.5581 0.615,-3.3622 0,-1.7631 -0.615,-3.3212 -0.615,-1.5991 -1.6811,-2.7471 -1.0661,-1.1891 -2.5011,-1.8451 -1.3941,-0.6971 -2.9932,-0.6971 -1.5991,0 -2.99319,0.6971 -1.39408,0.656 -2.46015,1.8451 -1.06606,1.189 -1.6811,2.7881 -0.61503,1.5581 -0.61503,3.3622 z"
         style="font-style:normal;font-variant:normal;font-weight:normal;font-stretch:normal;font-family:Raleway;-inkscape-font-specification:Raleway;fill:#ffffff;stroke:#ffffff;stroke-width:0.88779134px"
         id="path4202" />
      <path
         d="m 1035.711,1134.8411 -2.7882,0 0,-11.9317 q 0,-3.8133 -1.148,-5.5354 -1.1071,-1.7221 -3.4442,-1.7221 -1.2301,0 -2.4602,0.4511 -1.2301,0.451 -2.2961,1.271 -1.0251,0.8201 -1.8451,1.9681 -0.8201,1.1071 -1.1891,2.4192 l 0,13.0798 -2.7882,0 0,-21.3623 2.5422,0 0,4.8383 q 1.3121,-2.3372 3.7312,-3.7722 2.4602,-1.4351 5.3303,-1.4351 1.7631,0 2.9932,0.656 1.2301,0.6561 1.9681,1.8451 0.7381,1.1891 1.0661,2.9112 0.328,1.7221 0.328,3.8132 l 0,12.5058 z"
         style="font-style:normal;font-variant:normal;font-weight:normal;font-stretch:normal;font-family:Raleway;-inkscape-font-specification:Raleway;fill:#ffffff;stroke:#ffffff;stroke-width:0.88779134px"
         id="path4204" />
      <path
         d="m 1050.3911,1135.2511 q -2.2141,0 -4.1002,-0.9021 -1.8861,-0.943 -3.2392,-2.4601 -1.3531,-1.5171 -2.1321,-3.4852 -0.7381,-2.0091 -0.7381,-4.1823 0,-2.2551 0.7381,-4.2642 0.738,-2.0501 2.0091,-3.5672 1.3121,-1.5171 3.0752,-2.3782 1.8041,-0.902 3.9362,-0.902 2.7062,0 4.7973,1.4351 2.0911,1.394 3.2802,3.4032 l 0,-13.0388 2.7882,0 0,26.3236 q 0,1.148 0.984,1.148 l 0,2.4602 q -0.615,0.123 -0.984,0.123 -0.9841,0 -1.7221,-0.6151 -0.7381,-0.656 -0.7381,-1.5581 l 0,-2.0911 q -1.2711,2.0911 -3.4442,3.3212 -2.1731,1.2301 -4.5103,1.2301 z m 0.6151,-2.4602 q 1.025,0 2.1731,-0.41 1.1891,-0.41 2.2141,-1.107 1.0251,-0.7381 1.7221,-1.6811 0.7381,-0.9841 0.9021,-2.0912 l 0,-6.6014 q -0.41,-1.107 -1.1891,-2.0501 -0.779,-0.984 -1.8041,-1.7221 -0.984,-0.738 -2.1321,-1.1481 -1.1481,-0.41 -2.2551,-0.41 -1.7221,0 -3.1162,0.7381 -1.3941,0.738 -2.4192,1.9681 -0.984,1.1891 -1.5171,2.7471 -0.533,1.5581 -0.533,3.1982 0,1.7221 0.615,3.2802 0.6151,1.5581 1.6811,2.7472 1.0661,1.1481 2.5012,1.8451 1.4761,0.697 3.1572,0.697 z"
         style="font-style:normal;font-variant:normal;font-weight:normal;font-stretch:normal;font-family:Raleway;-inkscape-font-specification:Raleway;fill:#ffffff;stroke:#ffffff;stroke-width:0.88779134px"
         id="path4206" />
      <path
         d="m 1077.7436,1115.9389 q -2.8291,0.082 -4.9203,1.5581 -2.0911,1.4761 -2.9521,4.0593 l 0,13.2848 -2.7882,0 0,-21.3623 2.6242,0 0,5.1253 q 1.189,-2.4601 3.1981,-3.8542 2.0092,-1.3941 4.3053,-1.3941 0.328,0 0.533,0.041 l 0,2.5421 z"
         style="font-style:normal;font-variant:normal;font-weight:normal;font-stretch:normal;font-family:Raleway;-inkscape-font-specification:Raleway;fill:#ffffff;stroke:#ffffff;stroke-width:0.88779134px"
         id="path4208" />
      <path
         d="m 1086.4688,1135.2511 q -1.5171,0 -2.8292,-0.492 -1.271,-0.5331 -2.2551,-1.4351 -0.943,-0.9021 -1.4761,-2.0911 -0.533,-1.2301 -0.533,-2.6242 0,-1.3941 0.656,-2.5832 0.6561,-1.189 1.8451,-2.0501 1.1891,-0.861 2.8292,-1.3121 1.6401,-0.492 3.6082,-0.492 1.6401,0 3.3212,0.287 1.6811,0.287 2.9932,0.8201 l 0,-1.9271 q 0,-2.8292 -1.5991,-4.4693 -1.5991,-1.6811 -4.4283,-1.6811 -1.6401,0 -3.3622,0.656 -1.7221,0.6561 -3.4852,1.8862 l -0.984,-1.8452 q 4.1412,-2.7881 8.0364,-2.7881 4.0183,0 6.3144,2.2551 2.2962,2.2551 2.2962,6.2324 l 0,9.6356 q 0,1.148 1.025,1.148 l 0,2.4602 q -0.697,0.123 -1.066,0.123 -1.0661,0 -1.6811,-0.5331 -0.5741,-0.533 -0.6151,-1.476 l -0.082,-1.6811 q -1.4761,1.9271 -3.7312,2.9521 -2.2141,1.0251 -4.7973,1.0251 z m 0.656,-2.1321 q 2.1732,0 3.9773,-0.8201 1.8451,-0.82 2.7881,-2.1731 0.3691,-0.369 0.5331,-0.7791 0.205,-0.451 0.205,-0.82 l 0,-3.4852 q -1.3941,-0.533 -2.9112,-0.8201 -1.4761,-0.287 -3.0342,-0.287 -2.9521,0 -4.7972,1.2301 -1.8452,1.2301 -1.8452,3.2392 0,0.984 0.3691,1.8451 0.41,0.861 1.066,1.5171 0.6971,0.615 1.6401,0.984 0.9431,0.3691 2.0091,0.3691 z"
         style="font-style:normal;font-variant:normal;font-weight:normal;font-stretch:normal;font-family:Raleway;-inkscape-font-specification:Raleway;fill:#ffffff;stroke:#ffffff;stroke-width:0.88779134px"
         id="path4210" />
      <path
         d="m 1112.0101,1135.1281 q -2.2141,0 -4.0592,-0.9021 -1.8041,-0.943 -3.1572,-2.4601 -1.3121,-1.5171 -2.0501,-3.4852 -0.7381,-1.9681 -0.7381,-4.0593 0,-2.2141 0.6971,-4.2232 0.738,-2.0501 2.0501,-3.5672 1.3121,-1.5171 3.1162,-2.4192 1.8451,-0.902 4.0592,-0.902 2.7472,0 4.7563,1.3941 2.0091,1.353 3.4442,3.4442 l 0,-4.4693 2.5011,0 0,21.4443 q 0,2.2141 -0.861,3.8952 -0.8201,1.7221 -2.2551,2.8702 -1.3941,1.148 -3.3212,1.7221 -1.8862,0.574 -4.0183,0.574 -3.6902,0 -5.9453,-1.3121 -2.2552,-1.312 -3.6493,-3.5262 l 1.7222,-1.3531 q 1.271,2.0502 3.3622,2.9932 2.0911,0.9841 4.5102,0.9841 1.5581,0 2.9522,-0.4511 1.3941,-0.41 2.4191,-1.271 1.0661,-0.8201 1.6811,-2.1322 0.6151,-1.271 0.6151,-2.9931 l 0,-4.2233 q -1.2301,2.0501 -3.3622,3.2392 -2.1322,1.1891 -4.4693,1.1891 z m 0.7791,-2.3372 q 1.23,0 2.4191,-0.451 1.1891,-0.451 2.1321,-1.1891 0.9841,-0.779 1.6401,-1.7221 0.6561,-0.943 0.8611,-1.9271 l 0,-6.6014 q -0.4511,-1.148 -1.2301,-2.1321 -0.779,-0.984 -1.7631,-1.6811 -0.9841,-0.697 -2.1321,-1.1071 -1.1071,-0.41 -2.2552,-0.41 -1.8041,0 -3.2392,0.7791 -1.394,0.738 -2.3781,1.9681 -0.9841,1.2301 -1.5171,2.7882 -0.492,1.558 -0.492,3.1571 0,1.7221 0.615,3.2802 0.6151,1.5581 1.6811,2.7472 1.1071,1.1481 2.5422,1.8451 1.4351,0.656 3.1162,0.656 z"
         style="font-style:normal;font-variant:normal;font-weight:normal;font-stretch:normal;font-family:Raleway;-inkscape-font-specification:Raleway;fill:#ffffff;stroke:#ffffff;stroke-width:0.88779134px"
         id="path4212" />
      <path
         d="m 1137.8493,1135.2511 q -2.3371,0 -4.2642,-0.8611 -1.9271,-0.902 -3.3622,-2.4191 -1.3941,-1.5171 -2.1732,-3.5262 -0.779,-2.0091 -0.779,-4.2233 0,-2.2551 0.779,-4.2642 0.8201,-2.0091 2.2142,-3.5262 1.4351,-1.5171 3.3622,-2.4192 1.9271,-0.902 4.2232,-0.902 2.2962,0 4.2233,0.902 1.9681,0.9021 3.3622,2.4192 1.4351,1.5171 2.2141,3.5262 0.8201,2.0091 0.8201,4.2642 0,2.2142 -0.7791,4.2233 -0.779,2.0091 -2.2141,3.5262 -1.3941,1.5171 -3.3622,2.4191 -1.9271,0.8611 -4.2643,0.8611 z m -7.7494,-10.9887 q 0,1.8041 0.615,3.3622 0.615,1.5171 1.6401,2.7062 1.0661,1.1481 2.4601,1.8041 1.4351,0.656 3.0342,0.656 1.5991,0 2.9932,-0.656 1.4351,-0.697 2.5011,-1.8451 1.0661,-1.1891 1.6811,-2.7472 0.6151,-1.5581 0.6151,-3.3622 0,-1.7631 -0.6151,-3.3212 -0.615,-1.5991 -1.6811,-2.7471 -1.066,-1.1891 -2.5011,-1.8451 -1.3941,-0.6971 -2.9932,-0.6971 -1.5991,0 -2.9932,0.6971 -1.394,0.656 -2.4601,1.8451 -1.0661,1.189 -1.6811,2.7881 -0.615,1.5581 -0.615,3.3622 z"
         style="font-style:normal;font-variant:normal;font-weight:normal;font-stretch:normal;font-family:Raleway;-inkscape-font-specification:Raleway;fill:#ffffff;stroke:#ffffff;stroke-width:0.88779134px"
         id="path4214" />
      <path
         d="m 1171.1311,1134.8411 -2.7881,0 0,-11.9317 q 0,-3.8133 -1.1481,-5.5354 -1.1071,-1.7221 -3.4442,-1.7221 -1.2301,0 -2.4601,0.4511 -1.2301,0.451 -2.2962,1.271 -1.025,0.8201 -1.8451,1.9681 -0.82,1.1071 -1.1891,2.4192 l 0,13.0798 -2.7881,0 0,-21.3623 2.5421,0 0,4.8383 q 1.3121,-2.3372 3.7312,-3.7722 2.4602,-1.4351 5.3304,-1.4351 1.7631,0 2.9931,0.656 1.2301,0.6561 1.9682,1.8451 0.738,1.1891 1.066,2.9112 0.328,1.7221 0.328,3.8132 l 0,12.5058 z"
         style="font-style:normal;font-variant:normal;font-weight:normal;font-stretch:normal;font-family:Raleway;-inkscape-font-specification:Raleway;fill:#ffffff;stroke:#ffffff;stroke-width:0.88779134px"
         id="path4216" />
      <path
         d="m 1176.6267,1134.8411 0,-4.0183 2.4192,0 0,4.0183 -2.4192,0 z"
         style="font-style:normal;font-variant:normal;font-weight:normal;font-stretch:normal;font-family:Raleway;-inkscape-font-specification:Raleway;fill:#ffffff;stroke:#ffffff;stroke-width:0.88779134px"
         id="path4218" />
      <path
         d="m 1183.2486,1124.0984 q 0,-2.2551 0.7791,-4.2642 0.779,-2.0091 2.1731,-3.4852 1.4351,-1.5171 3.4032,-2.3782 1.9681,-0.861 4.3463,-0.861 3.0341,0 5.2893,1.3941 2.2551,1.353 3.4032,3.6902 l -2.7062,0.861 q -0.902,-1.6401 -2.5421,-2.5421 -1.5991,-0.9431 -3.5672,-0.9431 -1.6401,0 -3.0752,0.6561 -1.3941,0.656 -2.4602,1.8041 -1.025,1.107 -1.6401,2.6651 -0.574,1.5581 -0.574,3.4032 0,1.8041 0.615,3.4032 0.6151,1.5991 1.6811,2.7882 1.0661,1.1481 2.4602,1.8451 1.4351,0.656 3.0342,0.656 1.025,0 2.0091,-0.287 1.025,-0.287 1.8861,-0.779 0.861,-0.5331 1.4761,-1.1891 0.615,-0.656 0.861,-1.3941 l 2.7472,0.8201 q -0.451,1.148 -1.3121,2.1321 -0.861,0.9431 -2.0501,1.6811 -1.1481,0.697 -2.5832,1.0661 -1.394,0.41 -2.9111,0.41 -2.3372,0 -4.3053,-0.8611 -1.9681,-0.902 -3.4032,-2.4191 -1.4351,-1.5581 -2.2551,-3.5672 -0.7791,-2.0091 -0.7791,-4.3053 z"
         style="font-style:normal;font-variant:normal;font-weight:normal;font-stretch:normal;font-family:Raleway;-inkscape-font-specification:Raleway;fill:#ffffff;stroke:#ffffff;stroke-width:0.88779134px"
         id="path4220" />
      <path
         d="m 1216.0903,1135.2511 q -2.3371,0 -4.2643,-0.8611 -1.9271,-0.902 -3.3622,-2.4191 -1.394,-1.5171 -2.1731,-3.5262 -0.779,-2.0091 -0.779,-4.2233 0,-2.2551 0.779,-4.2642 0.8201,-2.0091 2.2141,-3.5262 1.4351,-1.5171 3.3622,-2.4192 1.9272,-0.902 4.2233,-0.902 2.2961,0 4.2232,0.902 1.9682,0.9021 3.3622,2.4192 1.4351,1.5171 2.2142,3.5262 0.82,2.0091 0.82,4.2642 0,2.2142 -0.779,4.2233 -0.7791,2.0091 -2.2142,3.5262 -1.394,1.5171 -3.3622,2.4191 -1.9271,0.8611 -4.2642,0.8611 z m -7.7495,-10.9887 q 0,1.8041 0.6151,3.3622 0.615,1.5171 1.6401,2.7062 1.066,1.1481 2.4601,1.8041 1.4351,0.656 3.0342,0.656 1.5991,0 2.9932,-0.656 1.4351,-0.697 2.5011,-1.8451 1.0661,-1.1891 1.6811,-2.7472 0.6151,-1.5581 0.6151,-3.3622 0,-1.7631 -0.6151,-3.3212 -0.615,-1.5991 -1.6811,-2.7471 -1.066,-1.1891 -2.5011,-1.8451 -1.3941,-0.6971 -2.9932,-0.6971 -1.5991,0 -2.9932,0.6971 -1.3941,0.656 -2.4601,1.8451 -1.0661,1.189 -1.6811,2.7881 -0.6151,1.5581 -0.6151,3.3622 z"
         style="font-style:normal;font-variant:normal;font-weight:normal;font-stretch:normal;font-family:Raleway;-inkscape-font-specification:Raleway;fill:#ffffff;stroke:#ffffff;stroke-width:0.88779134px"
         id="path4222" />
      <path
         d="m 1263.1899,1134.8411 -2.7882,0 0,-11.9317 q 0,-3.7313 -1.189,-5.4944 -1.1891,-1.7631 -3.5262,-1.7631 -1.2301,0 -2.3372,0.4511 -1.0661,0.451 -2.0091,1.271 -0.9021,0.8201 -1.5991,1.9681 -0.697,1.1071 -1.0661,2.4602 l 0,13.0388 -2.7881,0 0,-11.9317 q 0,-3.8133 -1.1481,-5.5354 -1.1481,-1.7221 -3.5262,-1.7221 -2.4192,0 -4.3053,1.6811 -1.8861,1.6811 -2.7061,4.4283 l 0,13.0798 -2.7882,0 0,-21.3623 2.5422,0 0,4.8383 q 1.312,-2.4602 3.4442,-3.8132 2.1321,-1.3941 4.7152,-1.3941 2.7062,0 4.3053,1.5171 1.6401,1.5171 2.0091,3.9772 2.9932,-5.4943 8.2415,-5.4943 1.8041,0 3.0342,0.656 1.2711,0.6561 2.0091,1.8861 0.7791,1.1891 1.1071,2.9112 0.369,1.6811 0.369,3.7722 l 0,12.5058 z"
         style="font-style:normal;font-variant:normal;font-weight:normal;font-stretch:normal;font-family:Raleway;-inkscape-font-specification:Raleway;fill:#ffffff;stroke:#ffffff;stroke-width:0.88779134px"
         id="path4224" />
    </g>
  </g>
</svg>
