<?xml version="1.0" encoding="UTF-8" standalone="no"?>
<!-- Created with Inkscape (http://www.inkscape.org/) -->

<svg
   xmlns:dc="http://purl.org/dc/elements/1.1/"
   xmlns:cc="http://creativecommons.org/ns#"
   xmlns:rdf="http://www.w3.org/1999/02/22-rdf-syntax-ns#"
   xmlns:svg="http://www.w3.org/2000/svg"
   xmlns="http://www.w3.org/2000/svg"
   xmlns:sodipodi="http://sodipodi.sourceforge.net/DTD/sodipodi-0.dtd"
   xmlns:inkscape="http://www.inkscape.org/namespaces/inkscape"
   width="242.59889mm"
   height="120.58828mm"
   viewBox="0 0 859.60237 427.2813"
   id="svg2"
   version="1.1"
   inkscape:version="0.91 r13725"
   sodipodi:docname="logo.svg">
  <defs
     id="defs4" />
  <sodipodi:namedview
     id="base"
     pagecolor="#ffffff"
     bordercolor="#666666"
     borderopacity="1.0"
     inkscape:pageopacity="0.0"
     inkscape:pageshadow="2"
     inkscape:zoom="0.5411677"
     inkscape:cx="460.19657"
     inkscape:cy="-7.5802628"
     inkscape:document-units="px"
     inkscape:current-layer="layer1"
     showgrid="false"
     inkscape:window-width="1440"
     inkscape:window-height="851"
     inkscape:window-x="0"
     inkscape:window-y="1"
     inkscape:window-maximized="1"
     fit-margin-top="0"
     fit-margin-left="0"
     fit-margin-right="0"
     fit-margin-bottom="0"
     showguides="false" />
  <metadata
     id="metadata7">
    <rdf:RDF>
      <cc:Work
         rdf:about="">
        <dc:format>image/svg+xml</dc:format>
        <dc:type
           rdf:resource="http://purl.org/dc/dcmitype/StillImage" />
        <dc:title />
      </cc:Work>
    </rdf:RDF>
  </metadata>
  <g
     inkscape:label="Layer 1"
     inkscape:groupmode="layer"
     id="layer1"
     transform="translate(-713.63377,-817.72107)">
    <circle
       style="opacity:1;fill:#80e5ff;fill-opacity:0.59500002;stroke:none;stroke-width:1.99450827;stroke-linecap:round;stroke-miterlimit:4;stroke-dasharray:3.98901633, 3.98901633;stroke-dashoffset:0;stroke-opacity:1"
       id="path4136"
       cx="1359.5955"
       cy="1031.3617"
       r="213.64066" />
    <g
       style="font-style:normal;font-weight:normal;font-size:141.96522522px;line-height:125%;font-family:Sans;letter-spacing:0px;word-spacing:0px;fill:#ff0066;fill-opacity:1;stroke:none;stroke-width:1px;stroke-linecap:butt;stroke-linejoin:miter;stroke-opacity:1"
       id="text4138">
      <path
         d="m 782.95272,1045.775 q 0,6.1001 0.27728,9.6353 0.34659,3.5353 0.97046,5.3376 0.69319,1.8023 1.73298,2.2875 1.03978,0.4853 2.42616,0.4853 1.87161,0 3.88186,-1.1785 2.01025,-1.1784 3.95118,-3.05 1.94094,-1.8716 3.67391,-4.1591 1.80229,-2.2876 3.25799,-4.4365 1.52502,-2.2182 2.5648,-4.0898 1.10911,-1.9409 1.66366,-2.9807 l 2.14888,-4.2978 2.84208,2.1489 -2.14889,4.2978 q -0.55455,1.0398 -1.80229,3.3966 -1.24774,2.2876 -3.11935,5.1296 -1.87161,2.7728 -4.22846,5.8228 -2.35684,2.9807 -5.06028,5.4762 -2.70344,2.4955 -5.68416,4.0898 -2.98071,1.5944 -6.10007,1.5944 -2.84207,0 -5.06028,-0.9705 -2.21821,-0.9705 -3.74322,-3.3966 -1.52502,-2.4955 -2.35685,-6.724 -0.76251,-4.2977 -0.76251,-10.883 0,-2.5648 0.0693,-4.8524 0.13864,-2.3568 0.3466,-5.6841 -3.53527,6.8626 -8.17964,13.2399 -4.57505,6.3773 -9.84329,11.299 -5.26824,4.9216 -11.02172,7.833 -5.68415,2.9808 -11.50694,2.9808 -3.67391,0 -7.00122,-1.3171 -3.32731,-1.3171 -5.89211,-4.0205 -2.5648,-2.7728 -4.08982,-7.0705 -1.52501,-4.2978 -1.52501,-10.2592 0,-9.5661 2.14888,-18.7855 2.07957,-9.2194 5.8228,-17.815 3.74322,-8.6648 8.8035,-16.49787 5.06029,-7.90236 10.88308,-14.6263 5.82279,-6.72394 12.20014,-12.13081 6.37734,-5.4762 12.75468,-9.35806 6.37735,-3.88187 12.4081,-5.96143 6.10007,-2.07957 11.36831,-2.07957 5.82279,0 9.28874,2.98071 3.46595,2.9114 3.46595,8.31828 0,3.60458 -1.4557,7.07053 -1.38638,3.39663 -3.74323,6.5853 -2.28752,3.11935 -5.26824,5.96143 -2.91139,2.77276 -5.89211,5.06029 -2.98071,2.2182 -5.82279,3.95118 -2.77276,1.66365 -4.78301,2.63412 l -2.07957,-2.84208 q 1.73298,-0.90115 3.95118,-2.49548 2.28753,-1.59434 4.57505,-3.74323 2.28753,-2.14888 4.43642,-4.71369 2.2182,-2.63412 3.95118,-5.47619 1.73297,-2.9114 2.77276,-5.96143 1.03978,-3.11936 1.03978,-6.16939 0,-2.98072 -1.59434,-4.92165 -1.52501,-2.01025 -4.99096,-2.01025 -4.08982,0 -8.87283,2.14889 -4.783,2.07957 -9.84329,5.96143 -5.06028,3.88186 -10.18989,9.28874 -5.06028,5.33756 -9.77397,11.85354 -4.71369,6.44667 -8.80351,13.86379 -4.0205,7.3478 -7.07053,15.3195 -2.98072,7.9024 -4.71369,16.1513 -1.73297,8.1796 -1.73297,16.29 0,3.7432 0.55455,6.9319 0.55455,3.1193 1.80229,5.4068 1.24774,2.2182 3.25799,3.466 2.01025,1.2477 4.99097,1.2477 3.74322,0 7.34781,-1.6636 3.60458,-1.733 7.00121,-4.6444 3.39663,-2.9114 6.51598,-6.7933 3.18868,-3.8818 5.96143,-8.3182 2.77276,-4.4364 5.12961,-9.0808 2.42616,-4.7137 4.29777,-9.2888 0.48524,-5.1989 1.10911,-9.9126 0.62387,-4.783 1.24774,-8.5262 0.62387,-3.7432 1.17842,-6.1694 0.55455,-2.49546 0.97046,-3.05002 0.27728,-0.48523 1.17843,-1.1091 0.90114,-0.62387 2.01025,-1.1091 1.17842,-0.55455 2.35684,-0.90115 1.17842,-0.41591 2.01025,-0.41591 2.07957,0 2.07957,2.07957 0,1.94093 -0.27728,4.50571 -0.27727,2.5648 -0.7625,5.3376 -0.48524,2.7727 -1.17843,5.6148 -0.62387,2.7728 -1.4557,5.1296 -0.55455,7.5558 -0.90114,14.557 -0.3466,6.9319 -0.3466,13.1706 z"
         style="font-style:normal;font-variant:normal;font-weight:normal;font-stretch:normal;font-family:Rochester;-inkscape-font-specification:Rochester;fill:#ff0066;fill-opacity:1;stroke:none"
         id="path4145" />
      <path
         d="m 808.80869,1040.784 0.69319,-1.4557 q 1.03979,-2.0795 1.87162,-4.2977 0.90114,-2.2182 1.52501,-4.1592 0.62387,-2.0102 0.97047,-3.5352 0.34659,-1.5944 0.48523,-2.4262 -1.80229,-0.208 -3.46595,-0.9012 -1.66365,-0.6931 -2.91139,-1.8716 -1.24774,-1.1784 -1.94093,-2.7727 -0.76251,-1.5944 -0.76251,-3.6046 0,-1.5943 0.55455,-2.8421 0.55455,-1.2477 1.52502,-2.0796 0.90114,-0.8318 2.07957,-1.2477 1.1091,-0.4852 2.35684,-0.4852 1.66366,0 2.9114,0.6932 1.24774,0.6932 2.07957,1.8716 0.83182,1.1091 1.24774,2.6341 0.41591,1.4557 0.41591,3.05 1.94093,0 4.15914,-0.5545 2.28752,-0.5546 4.57505,-1.1784 2.28752,-0.6932 4.50573,-1.2478 2.21821,-0.5545 4.08982,-0.5545 1.59434,0 2.5648,0.6931 0.97047,0.6239 0.97047,2.1489 0,1.1091 -0.69319,3.6739 -0.62387,2.5648 -1.59434,5.9615 -0.97046,3.3966 -2.14889,7.4171 -1.1091,3.9512 -2.07957,8.041 -0.97046,4.0205 -1.66365,7.833 -0.62387,3.8126 -0.62387,6.7933 0,3.7432 0.83183,5.0603 0.83182,1.317 2.98071,1.317 0.90115,0 2.21821,-0.7625 1.38638,-0.8318 3.32731,-3.1193 1.94093,-2.3569 4.57505,-6.6546 2.70344,-4.3671 6.23871,-11.4377 l 0.69318,-1.4557 2.84208,2.1489 -0.69319,1.4557 q -4.15913,8.3183 -7.41713,13.6559 -3.25799,5.3375 -6.03075,8.4569 -2.70343,3.1193 -5.1296,4.3671 -2.42616,1.1784 -4.85233,1.1784 -4.08981,0 -6.65462,-3.1194 -2.5648,-3.1193 -2.5648,-9.6353 0,-3.5353 0.97047,-7.3478 0.97046,-3.8126 2.42616,-7.5558 1.4557,-3.8125 3.25799,-7.4864 1.8023,-3.6739 3.39663,-6.9319 1.66366,-3.3273 2.98072,-6.1694 1.31706,-2.8421 1.87161,-4.991 l -0.41591,-0.4159 q -1.10911,0 -2.98072,1.1784 -1.87161,1.1785 -4.22846,2.7035 -2.28752,1.4557 -4.92164,2.7727 -2.63412,1.3171 -5.33756,1.5944 -0.13864,0.9704 -0.62387,2.842 -0.41592,1.8717 -1.17842,4.1592 -0.76251,2.2875 -1.73298,4.7137 -0.97046,2.4261 -2.01025,4.575 l -0.69319,1.4557 -2.84208,-2.1489 z m 3.39663,-27.7969 q -0.62387,0 -1.03978,0.4159 -0.41591,0.416 -0.41591,0.9705 0,0.8318 0.41591,1.4557 0.41591,0.5546 1.03978,0.9705 0.62387,0.3466 1.24775,0.5545 0.69318,0.1387 1.17842,0.1387 0,-1.941 -0.62387,-3.1887 -0.62387,-1.3171 -1.8023,-1.3171 z"
         style="font-style:normal;font-variant:normal;font-weight:normal;font-stretch:normal;font-family:Rochester;-inkscape-font-specification:Rochester;fill:#ff0066;fill-opacity:1;stroke:none"
         id="path4147" />
      <path
         d="m 851.37054,1047.8546 q 0,-7.3478 0.55455,-14.765 0.55455,-7.4171 1.4557,-15.0422 l -6.30803,0 0.76251,-4.2284 6.10007,0 q 0.97046,-7.0706 1.94093,-14.14111 1.03978,-7.13985 1.87161,-14.2797 l 7.07053,0 q -0.13863,1.52501 -0.41591,4.43641 -0.20796,2.84208 -0.55455,6.65462 -0.27728,3.74318 -0.55455,8.24898 -0.27728,4.4364 -0.55455,9.0808 l 13.44787,0 -0.69319,4.2284 -13.03196,0 q -0.27728,3.9512 -0.48523,7.7637 -0.20796,3.8126 -0.41592,7.2785 -0.13864,3.3967 -0.20795,6.3081 -0.0693,2.842 -0.0693,4.9216 0,5.2682 0.27727,8.8035 0.3466,3.5353 0.97047,5.6842 0.69319,2.1489 1.66365,3.05 1.03979,0.9011 2.35685,0.9011 1.73297,0 3.81254,-1.7329 2.14889,-1.8023 4.43641,-4.783 2.28753,-2.9808 4.64437,-6.9319 2.35685,-4.0205 4.57506,-8.5263 l 0.69318,-1.4557 2.84208,2.1489 -0.69319,1.4557 q -3.18867,6.4467 -6.37734,11.5763 -3.11935,5.1296 -6.16939,8.7342 -3.05003,3.5352 -5.96143,5.4762 -2.9114,1.8716 -5.61483,1.8716 -2.70344,0 -4.85233,-1.2478 -2.07957,-1.2477 -3.53527,-3.9511 -1.4557,-2.7728 -2.21821,-7.0706 -0.7625,-4.2977 -0.7625,-10.4671 z"
         style="font-style:normal;font-variant:normal;font-weight:normal;font-stretch:normal;font-family:Rochester;-inkscape-font-specification:Rochester;fill:#ff0066;fill-opacity:1;stroke:none"
         id="path4149" />
      <path
         d="m 905.09272,1062.7581 q 2.42617,0 4.92165,-1.2477 2.5648,-1.2477 5.1296,-3.8819 2.63412,-2.6341 5.40688,-6.7932 2.77276,-4.2285 5.68416,-10.0513 l 0.69319,-1.4557 2.84207,2.1489 -0.69319,1.4557 q -3.74322,7.4172 -7.48644,12.6854 -3.67391,5.2682 -7.2785,8.5955 -3.53526,3.3274 -7.00121,4.8524 -3.46595,1.525 -6.65462,1.525 -4.50573,0 -8.041,-1.8716 -3.53527,-1.8716 -5.96143,-5.0603 -2.42616,-3.258 -3.6739,-7.4865 -1.31706,-4.2977 -1.31706,-9.0114 0,-7.4865 2.07956,-13.5865 2.01025,-6.1694 5.40688,-10.5365 3.46595,-4.3671 7.83305,-6.7933 4.36709,-2.4261 9.08078,-2.4261 4.78301,0 7.27849,2.4261 2.5648,2.4262 2.5648,6.1001 0,3.5353 -2.01025,6.6546 -2.01025,3.05 -5.4762,6.0308 -3.39663,2.9114 -7.90236,5.8228 -4.50573,2.842 -9.49669,5.8921 0.48523,3.6046 1.66365,6.5853 1.17842,2.9114 2.98072,5.0602 1.80229,2.0796 4.15913,3.258 2.35685,1.1091 5.26824,1.1091 z m 2.14889,-38.3333 q 0,-2.7728 -1.52502,-4.3671 -1.45569,-1.5944 -3.60458,-1.5944 -1.80229,0 -3.81254,1.3171 -2.01025,1.2477 -3.67391,4.0898 -1.66365,2.7728 -2.77276,7.1399 -1.1091,4.3671 -1.1091,10.6058 l 0,1.5943 q 2.35684,-1.2477 5.19892,-3.258 2.9114,-2.0796 5.40688,-4.575 2.49548,-2.4955 4.15914,-5.2683 1.73297,-2.8421 1.73297,-5.6841 z"
         style="font-style:normal;font-variant:normal;font-weight:normal;font-stretch:normal;font-family:Rochester;-inkscape-font-specification:Rochester;fill:#ff0066;fill-opacity:1;stroke:none"
         id="path4151" />
      <path
         d="m 967.27184,1046.4682 q 0,4.7137 -1.4557,9.0808 -1.38638,4.2977 -4.15914,7.6944 -2.70344,3.3273 -6.79326,5.3375 -4.0205,2.0103 -9.21942,2.0103 -3.74322,0 -6.72394,-1.1784 -2.91139,-1.2478 -4.99096,-3.258 -2.07957,-2.0796 -3.18867,-4.6444 -1.10911,-2.6341 -1.10911,-5.4069 0,-2.7727 1.03979,-5.1296 1.1091,-2.4261 2.91139,-4.0898 1.87162,-1.733 4.22846,-2.7034 2.35684,-0.9705 4.99097,-0.9705 1.66365,0 3.46594,0.4159 l 0,2.0103 q -2.2182,0 -4.36709,0.9011 -2.07957,0.9012 -3.74322,2.4955 -1.59434,1.525 -2.56481,3.7432 -0.97046,2.1489 -0.97046,4.6444 0,4.575 3.11935,7.3478 3.18867,2.7034 8.66487,2.7034 2.77276,0 5.06028,-1.0398 2.28753,-1.1091 3.88187,-2.9807 1.66365,-1.9409 2.49548,-4.575 0.90115,-2.6341 0.90115,-5.7535 0,-2.9807 -1.17843,-5.5455 -1.17842,-2.5648 -3.11935,-4.8523 -1.94093,-2.2876 -4.43641,-4.2978 -2.42617,-2.0103 -4.99097,-3.8126 -2.49548,-1.8716 -4.92164,-3.6045 -2.42617,-1.733 -4.22846,-3.466 l -6.9319,15.3888 -2.84207,-2.1489 7.07053,-15.4581 q -2.5648,-2.4262 -3.81254,-4.575 -1.17842,-2.2183 -1.17842,-5.2683 0,-1.6636 0.55455,-3.1193 0.62387,-1.5251 1.59433,-2.5648 1.03979,-1.1091 2.35685,-1.733 1.31706,-0.6239 2.77276,-0.6239 2.63412,0 3.95118,1.525 1.31706,1.4557 1.31706,3.6739 0,1.0398 -0.20796,2.2182 -0.20796,1.1091 -0.55455,2.2876 -0.27728,1.1091 -0.62387,2.0795 -0.27728,0.9705 -0.48524,1.6637 2.07957,1.5943 4.99097,3.1193 2.9114,1.4557 6.03075,3.0501 3.18867,1.5943 6.30802,3.4659 3.11936,1.8716 5.54552,4.1592 2.49548,2.2875 4.0205,5.1989 1.52502,2.9114 1.52502,6.5853 z m -31.67877,-35.9072 q -0.97046,0 -1.59433,0.6932 -0.55455,0.6238 -0.55455,1.7329 0,1.2478 0.62387,2.7728 0.62387,1.525 2.2182,2.9807 0.69319,-1.4557 1.03979,-2.8421 0.41591,-1.3864 0.41591,-2.7727 0,-1.1091 -0.62387,-1.8023 -0.55455,-0.7625 -1.52502,-0.7625 z"
         style="font-style:normal;font-variant:normal;font-weight:normal;font-stretch:normal;font-family:Rochester;-inkscape-font-specification:Rochester;fill:#ff0066;fill-opacity:1;stroke:none"
         id="path4153" />
      <path
         d="m 1015.1019,1053.4001 q 0,3.9512 0.6932,6.6546 0.6932,2.7034 2.4262,2.7034 1.0398,0 2.2182,-0.9704 1.2477,-1.0398 2.8421,-3.3273 1.5943,-2.2876 3.6045,-5.8921 2.0796,-3.6739 4.7137,-8.9422 l 2.0796,-4.2978 2.8421,2.1489 -2.0796,4.2978 q -2.9114,5.8228 -5.4762,10.4672 -2.4955,4.575 -4.783,7.7637 -2.2875,3.1887 -4.5057,4.9216 -2.1489,1.6637 -4.2978,1.6637 -2.2875,0 -3.8819,-1.2478 -1.525,-1.2477 -2.5648,-3.3966 -1.0397,-2.2182 -1.5943,-5.0603 -0.5546,-2.9114 -0.7625,-6.1694 -1.6637,3.3274 -3.6739,6.2388 -2.0103,2.842 -4.22847,4.9909 -2.14889,2.1489 -4.50573,3.3966 -2.35685,1.2478 -4.71369,1.2478 -3.46595,0 -6.72394,-1.4557 -3.25799,-1.4557 -5.82279,-4.4364 -2.49548,-2.9807 -4.0205,-7.4865 -1.52502,-4.575 -1.52502,-10.7444 0,-7.2092 1.87161,-13.1706 1.87161,-6.0308 5.06029,-10.3285 3.18867,-4.3671 7.34781,-6.724 4.15913,-2.4261 8.73419,-2.4261 2.77275,0 5.1296,1.2477 2.35684,1.2477 4.08984,3.05 1.8023,1.733 2.9807,3.7433 1.1784,1.9409 1.5943,3.3273 l 0.8319,-6.724 q 0.1386,-1.317 1.2477,-2.2182 1.1784,-0.9011 2.5648,-1.3864 1.3864,-0.5545 2.7034,-0.7625 1.3171,-0.2772 1.8716,-0.2772 0.8319,0 1.1092,0.2772 0.2772,0.2773 0.2772,1.1091 0,1.0398 -0.6238,4.2285 -0.5546,3.1193 -1.2478,8.041 -0.6239,4.8523 -1.2477,11.4376 -0.5546,6.5853 -0.5546,14.4877 z m -7.6251,-18.3002 q 0,-3.1887 -0.9704,-6.2387 -0.9705,-3.1194 -2.6341,-5.4762 -1.6637,-2.4262 -3.88191,-3.8819 -2.14889,-1.4557 -4.57505,-1.4557 -2.98072,0 -5.61484,1.733 -2.5648,1.6636 -4.50573,4.783 -1.87161,3.05 -2.98071,7.4171 -1.10911,4.2978 -1.10911,9.4967 0,10.3979 3.25799,15.8741 3.258,5.4068 8.66487,5.4068 2.35685,0 4.85233,-1.8716 2.56476,-1.9409 4.64436,-5.4762 2.1489,-3.6046 3.466,-8.7342 1.3863,-5.1296 1.3863,-11.5762 z"
         style="font-style:normal;font-variant:normal;font-weight:normal;font-stretch:normal;font-family:Rochester;-inkscape-font-specification:Rochester;fill:#ff0066;fill-opacity:1;stroke:none"
         id="path4155" />
      <path
         d="m 1060.5058,1018.602 q -1.9409,0 -4.3671,1.7329 -2.3568,1.733 -4.783,4.5058 -2.4261,2.7034 -4.7137,6.1 -2.2182,3.3967 -3.8818,6.724 -0.208,6.1 -0.4159,13.3092 -0.1387,7.2092 -0.1387,15.3888 0,1.0398 -0.9704,1.8716 -0.9012,0.7626 -2.1489,1.3171 -1.2478,0.4852 -2.5648,0.7625 -1.3171,0.2773 -2.1489,0.2773 -1.0398,0 -1.941,-0.6239 -0.9011,-0.6239 -0.9011,-2.7727 0,-1.0398 0.208,-2.5648 0.2079,-1.5944 0.5545,-3.3967 0.2773,-1.8023 0.6932,-3.6739 0.3466,-1.9409 0.6932,-3.6046 l 0,-33.8969 q 0,-1.3864 0.069,-2.1489 0,-0.8318 0.208,-1.2478 0.4159,-0.9704 1.4557,-1.525 1.0397,-0.5545 2.2182,-0.8318 1.1784,-0.3466 2.2875,-0.4159 1.1091,-0.069 1.733,-0.069 1.1784,0 1.5943,0.6238 0.4852,0.6239 0.4852,2.2182 0,-0.2079 -0.3466,3.3967 -0.2772,3.6046 -0.4852,10.3285 2.0796,-3.258 4.5057,-6.2387 2.4262,-2.9807 5.0603,-5.2683 2.6341,-2.2875 5.4069,-3.6739 2.8421,-1.3863 5.7535,-1.3863 5.1989,0 7.6251,3.3273 2.4261,3.258 2.4261,8.8728 0,3.5353 -0.4852,7.9024 -0.4159,4.2977 -1.0398,8.8035 -0.5545,4.4364 -1.0398,8.7342 -0.4159,4.2284 -0.4159,7.7637 0,4.575 2.8421,4.575 0.9011,0 2.0796,-0.9011 1.2477,-0.9705 3.05,-3.5353 1.8716,-2.5648 4.4364,-7.0012 2.5648,-4.5057 6.1001,-11.5763 l 0.6932,-1.4557 2.842,2.1489 -0.6932,1.4557 q -4.1591,8.3183 -7.4171,13.6559 -3.1887,5.3375 -5.8228,8.4569 -2.6341,3.1193 -4.9216,4.3671 -2.2875,1.1784 -4.5751,1.1784 -1.4557,0 -2.9114,-0.4159 -1.4557,-0.4159 -2.5648,-1.4557 -1.1091,-1.0398 -1.8023,-2.7728 -0.6932,-1.8023 -0.6932,-4.575 0,-4.1592 0.5546,-9.3581 0.5546,-5.1989 1.2477,-10.3978 0.6932,-5.199 1.2478,-9.774 0.5545,-4.6444 0.5545,-7.5558 0,-2.5648 -1.1091,-4.0898 -1.1091,-1.5943 -3.3273,-1.5943 z"
         style="font-style:normal;font-variant:normal;font-weight:normal;font-stretch:normal;font-family:Rochester;-inkscape-font-specification:Rochester;fill:#ff0066;fill-opacity:1;stroke:none"
         id="path4157" />
      <path
         d="m 1147.917,1041.4772 -0.7625,1.4557 q -2.3568,4.7137 -6.308,7.5558 -3.8819,2.7727 -8.4569,3.6046 -1.2477,3.5352 -3.258,6.5853 -1.9409,2.9807 -4.5057,5.1989 -2.4955,2.2182 -5.6842,3.4659 -3.1193,1.2478 -6.7932,1.2478 -5.3376,0 -9.6354,-2.2182 -4.2284,-2.2875 -7.2091,-6.1001 -2.9808,-3.8819 -4.5751,-9.0115 -1.5943,-5.1989 -1.5943,-11.091 0,-5.1296 1.1784,-9.2887 1.1784,-4.2285 2.9807,-7.4865 1.8023,-3.3273 4.0205,-5.7534 2.2182,-2.4955 4.3671,-4.0899 2.1489,-1.5943 3.8819,-2.3568 1.8023,-0.8318 2.7034,-0.8318 l 0.9011,2.4261 q -2.842,2.0796 -5.0602,5.8228 -1.941,3.1887 -3.5353,8.4569 -1.525,5.2683 -1.525,13.1013 0,4.783 0.9011,9.2888 0.9012,4.5057 2.6341,7.9716 1.733,3.466 4.2285,5.5456 2.5648,2.0795 5.7535,2.0795 4.3671,0 7.2091,-3.4659 2.9114,-3.5353 4.2978,-9.6354 -3.6046,-0.7625 -6.8626,-2.842 -3.2579,-2.0796 -5.7534,-5.1296 -2.4955,-3.1194 -4.0205,-7.1399 -1.4557,-4.0205 -1.4557,-8.7342 0,-3.8818 0.9704,-6.7932 1.0398,-2.9808 2.7035,-4.9217 1.6636,-2.0102 3.8125,-2.9807 2.2182,-1.0398 4.6444,-1.0398 2.8421,0 5.8228,1.6637 2.9807,1.5943 5.4069,4.8523 2.4261,3.1887 3.9511,8.041 1.5251,4.8523 1.5251,11.299 0,2.4261 -0.2773,4.783 -0.2773,2.3568 -0.8318,4.575 3.3273,-0.9704 6.0307,-3.1193 2.7728,-2.1489 4.5751,-5.6842 l 0.7625,-1.4557 2.842,2.1489 z m -37.3629,-11.9228 q 0,4.0898 1.1091,7.5557 1.1785,3.3967 3.1194,6.0308 1.9409,2.5648 4.5057,4.2978 2.5648,1.7329 5.4762,2.4261 0.3466,-1.9409 0.4159,-4.0205 0.1387,-2.1489 0.1387,-4.3671 0,-4.9216 -0.7625,-8.8728 -0.7626,-4.0205 -2.0103,-6.7933 -1.2477,-2.842 -2.9114,-4.3671 -1.6636,-1.525 -3.3966,-1.525 -2.3569,0 -4.0205,2.5648 -1.6637,2.4955 -1.6637,7.0706 z"
         style="font-style:normal;font-variant:normal;font-weight:normal;font-stretch:normal;font-family:Rochester;-inkscape-font-specification:Rochester;fill:#ff0066;fill-opacity:1;stroke:none"
         id="path4159" />
      <path
         d="m 1216.6814,954.20466 q 13.7252,0 24.8162,4.43641 11.1604,4.36709 19.0627,12.20014 7.9024,7.83304 12.2002,18.6468 4.2978,10.81379 4.2978,23.63779 0,8.2489 -1.5944,15.9433 -1.5943,7.6944 -4.575,14.4877 -2.9807,6.7933 -7.3478,12.4081 -4.2978,5.6148 -9.774,9.7046 -5.4069,4.0205 -11.9229,6.2387 -6.4466,2.2183 -13.7944,2.2183 -7.4865,0 -15.1116,-1.3864 -7.6251,-1.3864 -15.1115,-2.9807 -2.5648,1.4557 -5.2683,2.4954 -2.7034,1.1091 -5.4068,1.8023 -2.7035,0.7625 -5.3376,1.1091 -2.5648,0.416 -4.8523,0.416 -6.9319,0 -10.5365,-1.5944 -3.6739,-1.5943 -3.6739,-4.783 0,-1.8716 1.0398,-3.3273 0.9704,-1.4557 3.3273,-2.4262 2.3568,-1.0398 6.1694,-1.525 3.7432,-0.5545 9.358,-0.5545 4.3671,0 8.5956,0.4852 4.2284,0.4159 8.3876,1.0398 l 1.8716,-1.9409 q 1.4557,-1.733 2.2182,-4.3671 0.7625,-2.7035 1.1091,-6.9319 0.3466,-4.2285 0.4159,-10.3286 0.069,-6.1694 0.069,-14.9035 0,-8.457 0.069,-14.4184 0.1386,-6.0307 0.5545,-10.32851 0.4159,-4.29777 1.2477,-7.27849 0.8319,-3.05003 2.2183,-5.54551 1.4557,-2.56481 3.6045,-4.99097 2.1489,-2.49548 5.1296,-5.68415 l 3.5353,3.11935 q -1.525,1.4557 -2.4262,3.60459 -0.8318,2.07956 -1.2477,4.99096 -0.4159,2.84208 -0.5545,6.51598 -0.069,3.60459 -0.069,8.17965 l 0,39.0266 q 0,4.5057 -0.9704,7.9023 -0.9705,3.3273 -2.6342,5.9615 -1.5943,2.6341 -3.6739,4.7136 -2.0795,2.0796 -4.2977,3.8819 4.0898,0.8318 7.9716,1.6637 3.8819,0.8318 7.4865,1.525 3.6739,0.6932 7.0012,1.1784 3.3966,0.4159 6.4467,0.4159 5.6841,0 10.1205,-2.4955 4.4365,-2.4955 7.6944,-6.7932 3.258,-4.3671 5.4762,-10.1899 2.2876,-5.8921 3.6739,-12.6161 1.3864,-6.7239 1.941,-14.0717 0.6238,-7.3478 0.6238,-14.557 0,-11.43762 -2.9113,-20.51841 -2.9114,-9.08078 -8.6649,-15.3888 -5.6842,-6.37735 -14.2104,-9.70466 -8.4569,-3.39663 -19.6173,-3.39663 -8.041,0 -14.0024,1.31706 -5.9614,1.24774 -10.2592,3.39663 -4.2285,2.07957 -6.9319,4.78301 -2.7034,2.70344 -4.2978,5.61484 -1.525,2.84207 -2.1489,5.68415 -0.5545,2.84208 -0.5545,5.19892 0,2.77276 0.4159,5.4762 0.4852,2.63412 1.8023,4.71369 1.3864,2.07957 3.8819,3.32731 2.4954,1.24774 6.6546,1.24774 1.3864,0 2.2875,-0.13864 0.9011,-0.20796 1.525,-0.48523 0.6932,-0.27728 1.1784,-0.62387 l 0.8319,4.08979 q -1.0398,0.7625 -3.5353,1.3171 -2.4262,0.5545 -5.2682,0.5545 -4.1592,0 -7.7638,-1.4557 -3.5352,-1.4557 -6.1694,-3.95114 -2.6341,-2.5648 -4.0898,-5.89211 -1.525,-3.32731 -1.525,-7.07053 0,-6.44667 3.3966,-12.20014 3.3967,-5.82279 9.4967,-10.18989 6.1001,-4.43641 14.4877,-7.00121 8.4569,-2.63412 18.4388,-2.63412 z m -42.5618,112.15804 q -1.1091,0 -2.3568,0.069 -1.2478,0.069 -2.2876,0.3466 -1.1091,0.2773 -1.8023,0.8319 -0.6931,0.5545 -0.6931,1.5943 0,1.3864 2.2875,2.0796 2.2875,0.6932 7.6944,0.6932 4.1591,0 7.9023,-0.9012 3.8126,-0.9011 7.1399,-2.6341 -4.5751,-0.8318 -9.0808,-1.4557 -4.5057,-0.6239 -8.8035,-0.6239 z"
         style="font-style:normal;font-variant:normal;font-weight:normal;font-stretch:normal;font-family:Rochester;-inkscape-font-specification:Rochester;fill:#ff0066;fill-opacity:1;stroke:none"
         id="path4161" />
      <path
         d="m 1289.1197,1040.0908 -0.6932,1.3864 -0.6931,1.4557 -2.8421,-2.1489 0.6932,-1.4557 q 1.7329,-3.5352 2.842,-7.0705 1.1785,-3.6046 1.8717,-6.7239 0.7625,-3.1194 1.2477,-5.4762 0.4852,-2.3569 0.9705,-3.3967 0.4159,-0.8318 1.1784,-1.317 0.8318,-0.5546 1.6636,-0.9012 0.9012,-0.3466 1.6637,-0.4852 0.8318,-0.1386 1.1784,-0.1386 1.525,0 2.0103,0.6238 0.5545,0.6239 0.5545,2.2182 0,0.7625 -0.3466,3.8126 -0.2772,2.9807 -0.6932,7.5557 -0.3466,4.5058 -0.6931,10.1899 -0.2773,5.6149 -0.2773,11.6456 0,4.3671 0.4159,6.9319 0.4159,2.4955 1.0398,3.7432 0.6932,1.2478 1.4557,1.5944 0.8318,0.3466 1.6636,0.3466 1.1091,0 2.4955,-0.9705 1.3864,-0.9705 3.258,-3.3966 1.8716,-2.4955 4.2978,-6.6546 2.4261,-4.2285 5.6841,-10.6752 l 0.7625,-1.4557 2.8421,2.1489 -0.7625,1.4557 q -2.6341,5.1296 -5.2682,10.1206 -2.5648,4.991 -5.2683,8.8728 -2.6341,3.8819 -5.3375,6.308 -2.7035,2.3569 -5.4069,2.3569 -2.8421,0 -4.9217,-1.1091 -2.0102,-1.1784 -3.3966,-3.8126 -1.317,-2.6341 -2.0102,-6.9319 -0.6239,-4.367 -0.6239,-10.7444 0,-1.8023 0,-3.7432 0,-2.0103 0.1386,-4.1592 l -0.6932,0 z m 14.2104,-40.48223 q 0,2.42613 -1.6636,4.08983 -1.5944,1.5943 -4.0205,1.5943 -2.3569,0 -4.0205,-1.5943 -1.6637,-1.6637 -1.6637,-4.08983 0,-2.35684 1.6637,-4.0205 1.6636,-1.66365 4.0205,-1.66365 2.4261,0 4.0205,1.66365 1.6636,1.66366 1.6636,4.0205 z"
         style="font-style:normal;font-variant:normal;font-weight:normal;font-stretch:normal;font-family:Rochester;-inkscape-font-specification:Rochester;fill:#ff0066;fill-opacity:1;stroke:none"
         id="path4163" />
      <path
         d="m 1339.3067,1096.8631 q 0,-3.0501 1.1091,-6.1694 1.1784,-3.1194 3.1886,-6.3774 2.0103,-3.258 4.6444,-6.7932 2.7034,-3.466 5.8228,-7.2092 l 0,-13.1013 q -1.6637,3.258 -3.7432,5.7535 -2.0796,2.4955 -4.4364,4.2285 -2.2876,1.6636 -4.783,2.5648 -2.4262,0.8318 -4.7831,0.8318 -3.2579,0 -6.308,-1.5943 -2.9807,-1.5944 -5.3375,-4.7831 -2.3569,-3.2579 -3.7433,-8.1796 -1.3863,-4.9216 -1.3863,-11.5763 0,-5.6148 1.317,-11.091 1.3171,-5.4762 3.9512,-9.774 2.6341,-4.3671 6.516,-7.0705 3.8818,-2.7034 9.0808,-2.7034 4.0898,0 7.6251,1.6636 3.6045,1.6637 6.0307,4.8523 l 0,-0.8318 q 0,-1.317 0.7625,-2.3568 0.8318,-1.1091 2.0103,-1.8023 1.2477,-0.7625 2.5648,-1.1091 1.3863,-0.4159 2.4261,-0.4159 1.1784,0 1.6637,0.3466 0.4852,0.2772 0.4852,1.0397 0,1.1091 -0.2773,4.991 -0.2772,3.8819 -0.2772,11.3683 l 0,30.0844 q 1.7329,-2.1488 3.6739,-4.783 1.9409,-2.6341 3.8818,-5.4762 1.941,-2.9114 3.7433,-5.9614 1.8716,-3.05 3.4659,-6.1001 l 0.6932,-1.3863 2.8421,2.1488 -0.6932,1.3864 q -1.6637,3.3273 -3.8819,6.9319 -2.1489,3.5353 -4.575,7.0012 -2.3569,3.3967 -4.783,6.5853 -2.3569,3.1194 -4.3671,5.6149 l 0,15.0422 q 0,6.3773 -1.1785,10.8137 -1.1091,4.5058 -3.1193,7.2785 -1.9409,2.8421 -4.7137,4.0899 -2.7034,1.2477 -5.8921,1.2477 -3.9512,0 -6.5853,-2.4955 -2.6341,-2.4262 -2.6341,-6.7239 z m 1.2477,-33.3424 q 2.1489,0 4.2285,-1.2478 2.1488,-1.2477 3.9511,-3.1887 1.8023,-1.9409 3.1887,-4.2284 1.4557,-2.3569 2.1489,-4.5751 l 0,-19.5479 q 0,-3.1194 -0.9705,-5.6148 -0.9704,-2.5649 -2.5648,-4.2978 -1.5943,-1.8023 -3.6739,-2.7728 -2.0102,-0.9704 -4.1591,-0.9704 -3.3273,0 -5.8228,2.0102 -2.4955,1.9409 -4.1591,5.1989 -1.6637,3.1887 -2.4955,7.3478 -0.7625,4.1592 -0.7625,8.4569 0,5.3376 0.6238,9.6354 0.6932,4.2978 2.0796,7.4171 1.3864,3.05 3.466,4.7137 2.0795,1.6637 4.9216,1.6637 z m 7.2092,38.3333 q 1.1091,0 2.2182,-0.4852 1.1784,-0.4159 2.0796,-2.0102 0.9011,-1.5944 1.4557,-4.7137 0.5545,-3.1194 0.5545,-8.4569 l 0,-10.3286 q -4.783,5.7535 -7.833,10.8831 -2.9808,5.1989 -2.9808,9.7047 0,2.1488 1.1785,3.7432 1.1784,1.6636 3.3273,1.6636 z"
         style="font-style:normal;font-variant:normal;font-weight:normal;font-stretch:normal;font-family:Rochester;-inkscape-font-specification:Rochester;fill:#ff0066;fill-opacity:1;stroke:none"
         id="path4165" />
      <path
         d="m 1382.5617,1040.0908 -0.6932,1.3864 -0.6932,1.4557 -2.8421,-2.1489 0.6932,-1.4557 q 1.733,-3.5352 2.8421,-7.0705 1.1784,-3.6046 1.8716,-6.7239 0.7625,-3.1194 1.2478,-5.4762 0.4852,-2.3569 0.9704,-3.3967 0.4159,-0.8318 1.1784,-1.317 0.8319,-0.5546 1.6637,-0.9012 0.9011,-0.3466 1.6637,-0.4852 0.8318,-0.1386 1.1784,-0.1386 1.525,0 2.0102,0.6238 0.5546,0.6239 0.5546,2.2182 0,0.7625 -0.3466,3.8126 -0.2773,2.9807 -0.6932,7.5557 -0.3466,4.5058 -0.6932,10.1899 -0.2773,5.6149 -0.2773,11.6456 0,4.3671 0.4159,6.9319 0.416,2.4955 1.0398,3.7432 0.6932,1.2478 1.4557,1.5944 0.8319,0.3466 1.6637,0.3466 1.1091,0 2.4955,-0.9705 1.3863,-0.9705 3.258,-3.3966 1.8716,-2.4955 4.2977,-6.6546 2.4262,-4.2285 5.6842,-10.6752 l 0.7625,-1.4557 2.8421,2.1489 -0.7625,1.4557 q -2.6342,5.1296 -5.2683,10.1206 -2.5648,4.991 -5.2682,8.8728 -2.6341,3.8819 -5.3376,6.308 -2.7034,2.3569 -5.4069,2.3569 -2.842,0 -4.9216,-1.1091 -2.0103,-1.1784 -3.3966,-3.8126 -1.3171,-2.6341 -2.0103,-6.9319 -0.6239,-4.367 -0.6239,-10.7444 0,-1.8023 0,-3.7432 0,-2.0103 0.1387,-4.1592 l -0.6932,0 z m 14.2104,-40.48223 q 0,2.42613 -1.6637,4.08983 -1.5943,1.5943 -4.0205,1.5943 -2.3568,0 -4.0205,-1.5943 -1.6636,-1.6637 -1.6636,-4.08983 0,-2.35684 1.6636,-4.0205 1.6637,-1.66365 4.0205,-1.66365 2.4262,0 4.0205,1.66365 1.6637,1.66366 1.6637,4.0205 z"
         style="font-style:normal;font-variant:normal;font-weight:normal;font-stretch:normal;font-family:Rochester;-inkscape-font-specification:Rochester;fill:#ff0066;fill-opacity:1;stroke:none"
         id="path4167" />
      <path
         d="m 1413.1314,1047.8546 q 0,-7.3478 0.5545,-14.765 0.5546,-7.4171 1.4557,-15.0422 l -6.308,0 0.7625,-4.2284 6.1001,0 q 0.9704,-7.0706 1.9409,-14.14111 1.0398,-7.13985 1.8716,-14.2797 l 7.0705,0 q -0.1386,1.52501 -0.4159,4.43641 -0.2079,2.84208 -0.5545,6.65462 -0.2773,3.74318 -0.5546,8.24898 -0.2773,4.4364 -0.5545,9.0808 l 13.4478,0 -0.6931,4.2284 -13.032,0 q -0.2773,3.9512 -0.4852,7.7637 -0.208,3.8126 -0.416,7.2785 -0.1386,3.3967 -0.2079,6.3081 -0.069,2.842 -0.069,4.9216 0,5.2682 0.2772,8.8035 0.3466,3.5353 0.9705,5.6842 0.6932,2.1489 1.6637,3.05 1.0397,0.9011 2.3568,0.9011 1.733,0 3.8125,-1.7329 2.1489,-1.8023 4.4365,-4.783 2.2875,-2.9808 4.6443,-6.9319 2.3569,-4.0205 4.5751,-8.5263 l 0.6932,-1.4557 2.8421,2.1489 -0.6932,1.4557 q -3.1887,6.4467 -6.3774,11.5763 -3.1193,5.1296 -6.1694,8.7342 -3.05,3.5352 -5.9614,5.4762 -2.9114,1.8716 -5.6148,1.8716 -2.7035,0 -4.8524,-1.2478 -2.0795,-1.2477 -3.5352,-3.9511 -1.4557,-2.7728 -2.2182,-7.0706 -0.7625,-4.2977 -0.7625,-10.4671 z"
         style="font-style:normal;font-variant:normal;font-weight:normal;font-stretch:normal;font-family:Rochester;-inkscape-font-specification:Rochester;fill:#ff0066;fill-opacity:1;stroke:none"
         id="path4169" />
      <path
         d="m 1488.4118,1053.4001 q 0,3.9512 0.6932,6.6546 0.6931,2.7034 2.4261,2.7034 1.0398,0 2.2182,-0.9704 1.2478,-1.0398 2.8421,-3.3273 1.5943,-2.2876 3.6046,-5.8921 2.0796,-3.6739 4.7137,-8.9422 l 2.0795,-4.2978 2.8421,2.1489 -2.0795,4.2978 q -2.9114,5.8228 -5.4762,10.4672 -2.4955,4.575 -4.783,7.7637 -2.2876,3.1887 -4.5058,4.9216 -2.1489,1.6637 -4.2978,1.6637 -2.2875,0 -3.8818,-1.2478 -1.525,-1.2477 -2.5648,-3.3966 -1.0398,-2.2182 -1.5944,-5.0603 -0.5545,-2.9114 -0.7625,-6.1694 -1.6636,3.3274 -3.6739,6.2388 -2.0102,2.842 -4.2284,4.9909 -2.1489,2.1489 -4.5058,3.3966 -2.3568,1.2478 -4.7136,1.2478 -3.466,0 -6.724,-1.4557 -3.258,-1.4557 -5.8228,-4.4364 -2.4955,-2.9807 -4.0205,-7.4865 -1.525,-4.575 -1.525,-10.7444 0,-7.2092 1.8716,-13.1706 1.8716,-6.0308 5.0603,-10.3285 3.1887,-4.3671 7.3478,-6.724 4.1591,-2.4261 8.7342,-2.4261 2.7728,0 5.1296,1.2477 2.3568,1.2477 4.0898,3.05 1.8023,1.733 2.9807,3.7433 1.1785,1.9409 1.5944,3.3273 l 0.8318,-6.724 q 0.1386,-1.317 1.2477,-2.2182 1.1785,-0.9011 2.5648,-1.3864 1.3864,-0.5545 2.7035,-0.7625 1.317,-0.2772 1.8716,-0.2772 0.8318,0 1.1091,0.2772 0.2773,0.2773 0.2773,1.1091 0,1.0398 -0.6239,4.2285 -0.5545,3.1193 -1.2477,8.041 -0.6239,4.8523 -1.2478,11.4376 -0.5545,6.5853 -0.5545,14.4877 z m -7.6251,-18.3002 q 0,-3.1887 -0.9705,-6.2387 -0.9704,-3.1194 -2.6341,-5.4762 -1.6637,-2.4262 -3.8819,-3.8819 -2.1489,-1.4557 -4.575,-1.4557 -2.9807,0 -5.6149,1.733 -2.5648,1.6636 -4.5057,4.783 -1.8716,3.05 -2.9807,7.4171 -1.1091,4.2978 -1.1091,9.4967 0,10.3979 3.258,15.8741 3.258,5.4068 8.6649,5.4068 2.3568,0 4.8523,-1.8716 2.5648,-1.9409 4.6444,-5.4762 2.1488,-3.6046 3.4659,-8.7342 1.3864,-5.1296 1.3864,-11.5762 z"
         style="font-style:normal;font-variant:normal;font-weight:normal;font-stretch:normal;font-family:Rochester;-inkscape-font-specification:Rochester;fill:#ff0066;fill-opacity:1;stroke:none"
         id="path4171" />
      <path
         d="m 1522.0314,1061.7877 q 1.2478,0 2.8421,-1.5944 1.6637,-1.6636 3.5353,-4.5057 1.8716,-2.8421 3.9512,-6.6546 2.0795,-3.8126 4.2977,-8.249 l 0.6932,-1.4557 2.8421,2.1489 -0.6932,1.4557 q -3.6739,7.3478 -6.5853,12.6161 -2.8421,5.1989 -5.3375,8.5955 -2.4955,3.3273 -4.783,4.9217 -2.2183,1.525 -4.5751,1.525 -3.1194,0 -5.4069,-2.0103 -2.2182,-2.0795 -3.7432,-6.8625 -1.4557,-4.8524 -2.1489,-12.7547 -0.7625,-7.9024 -0.7625,-19.548 0,-16.4979 1.3864,-28.2821 1.3864,-11.85355 3.7432,-19.40932 2.4262,-7.62508 5.5455,-11.16035 3.1887,-3.60459 6.6546,-3.60459 2.0796,0 3.466,1.73298 1.4557,1.66365 1.4557,6.10007 0,3.46594 -0.5546,7.90236 -0.5545,4.43641 -1.4557,9.4967 -0.9011,5.06028 -2.1488,10.53645 -1.2478,5.4069 -2.6342,10.8138 -1.3863,5.3375 -2.842,10.5365 -1.4557,5.1296 -2.8421,9.6353 0.4159,8.5262 0.9011,14.0024 0.5546,5.4069 1.2478,8.5263 0.7625,3.1193 1.7329,4.3671 0.9705,1.1784 2.2182,1.1784 z m 1.8717,-85.33166 q 0,-1.4557 -0.3466,-2.28752 -0.3466,-0.83183 -1.1091,-0.83183 -0.7626,0 -1.5251,2.14889 -0.7625,2.14888 -1.525,5.82279 -0.6932,3.6739 -1.317,8.52623 -0.5546,4.85233 -1.0398,10.3285 -0.4853,5.4069 -0.7625,11.0911 -0.2773,5.6841 -0.3466,10.9524 1.6636,-6.1001 3.05,-12.4775 1.4557,-6.4466 2.5648,-12.47737 1.1091,-6.03075 1.733,-11.36831 0.6239,-5.40688 0.6239,-9.42738 z"
         style="font-style:normal;font-variant:normal;font-weight:normal;font-stretch:normal;font-family:Rochester;-inkscape-font-specification:Rochester;fill:#ff0066;fill-opacity:1;stroke:none"
         id="path4173" />
    </g>
    <g
       style="font-style:normal;font-weight:normal;font-size:40px;line-height:125%;font-family:sans-serif;letter-spacing:0px;word-spacing:0px;fill:#000000;fill-opacity:1;stroke:none;stroke-width:1px;stroke-linecap:butt;stroke-linejoin:miter;stroke-opacity:1"
       id="text3378">
      <path
         d="m 725.58859,1128.2696 q -1.43375,0 -2.67375,-0.465 -1.24,-0.5038 -2.17,-1.3563 -0.89125,-0.8525 -1.43375,-1.9762 -0.50375,-1.1625 -0.50375,-2.5188 0,-1.395 0.62,-2.5187 0.62,-1.1625 1.74375,-1.9763 1.1625,-0.8137 2.7125,-1.2787 1.58875,-0.465 3.44875,-0.465 1.4725,0 2.98375,0.2712 1.51125,0.2713 2.67375,0.7363 l 0,-1.6275 q 0,-2.48 -1.395,-3.875 -1.395,-1.4338 -3.9525,-1.4338 -3.06125,0 -6.4325,2.3638 l -1.12375,-2.2088 q 3.91375,-2.635 7.86625,-2.635 3.99125,0 6.2,2.1313 2.2475,2.1312 2.2475,6.0062 l 0,8.2538 q 0,1.2012 1.085,1.24 l 0,2.945 q -0.5425,0.077 -0.89125,0.1162 -0.34875,0.039 -0.73625,0.039 -1.0075,0 -1.6275,-0.5813 -0.58125,-0.62 -0.6975,-1.4725 l -0.0775,-1.4337 q -1.35625,1.8212 -3.44875,2.79 -2.05375,0.93 -4.4175,0.93 z m 0.89125,-2.5575 q 1.82125,0 3.37125,-0.6588 1.58875,-0.6975 2.4025,-1.8212 0.73625,-0.7363 0.73625,-1.5113 l 0,-2.9837 q -2.48,-0.9688 -5.15375,-0.9688 -2.5575,0 -4.185,1.085 -1.58875,1.085 -1.58875,2.8288 0,0.8525 0.31,1.5887 0.34875,0.7363 0.93,1.2788 0.62,0.5425 1.43375,0.8525 0.81375,0.31 1.74375,0.31 z"
         style="font-style:normal;font-variant:normal;font-weight:500;font-stretch:normal;font-size:38.75px;font-family:Raleway;-inkscape-font-specification:'Raleway Medium';fill:#ffffff"
         id="path3410" />
      <path
         d="m 752.58523,1110.6383 q -2.5575,0.077 -4.53375,1.3175 -1.9375,1.24 -2.75125,3.4488 l 0,12.4775 -3.41,0 0,-20.2275 3.1775,0 0,4.6887 q 1.04625,-2.0925 2.75125,-3.3712 1.705,-1.3175 3.6425,-1.4725 0.3875,0 0.65875,0 0.27125,0 0.465,0.039 l 0,3.1 z"
         style="font-style:normal;font-variant:normal;font-weight:500;font-stretch:normal;font-size:38.75px;font-family:Raleway;-inkscape-font-specification:'Raleway Medium';fill:#ffffff"
         id="path3412" />
      <path
         d="m 766.42988,1126.8746 q -0.31,0.155 -0.81375,0.3875 -0.50375,0.1937 -1.1625,0.4262 -0.62,0.1938 -1.395,0.31 -0.73625,0.155 -1.55,0.155 -1.86,0 -3.21625,-1.0075 -1.35625,-1.0462 -1.35625,-3.2162 l 0,-13.6013 -2.75125,0 0,-2.6737 2.75125,0 0,-6.7425 3.41,0 0,6.7425 4.53375,0 0,2.6737 -4.53375,0 0,12.555 q 0.0775,1.1238 0.73625,1.6275 0.65875,0.5038 1.55,0.5038 1.0075,0 1.82125,-0.31 0.8525,-0.3488 1.1625,-0.5425 l 0.81375,2.7125 z"
         style="font-style:normal;font-variant:normal;font-weight:500;font-stretch:normal;font-size:38.75px;font-family:Raleway;-inkscape-font-specification:'Raleway Medium';fill:#ffffff"
         id="path3414" />
      <path
         d="m 775.82917,1128.2696 q -3.1775,0 -4.805,-2.1313 -1.6275,-2.1312 -1.6275,-6.355 l 0,-12.1287 3.41,0 0,11.47 q 0,6.2 4.30125,6.2 2.0925,0 3.91375,-1.3175 1.86,-1.3563 2.75125,-3.6813 l 0,-12.6712 3.41,0 0,16.0425 q 0,1.2012 1.085,1.24 l 0,2.945 q -0.58125,0.077 -0.93,0.077 -0.31,0.039 -0.62,0.039 -1.0075,0 -1.705,-0.5812 -0.65875,-0.62 -0.6975,-1.5113 l -0.0775,-2.3637 q -1.35625,2.2862 -3.565,3.5262 -2.20875,1.2013 -4.84375,1.2013 z"
         style="font-style:normal;font-variant:normal;font-weight:500;font-stretch:normal;font-size:38.75px;font-family:Raleway;-inkscape-font-specification:'Raleway Medium';fill:#ffffff"
         id="path3416" />
      <path
         d="m 803.59597,1110.6383 q -2.5575,0.077 -4.53375,1.3175 -1.9375,1.24 -2.75125,3.4488 l 0,12.4775 -3.41,0 0,-20.2275 3.1775,0 0,4.6887 q 1.04625,-2.0925 2.75125,-3.3712 1.705,-1.3175 3.6425,-1.4725 0.3875,0 0.65875,0 0.27125,0 0.465,0.039 l 0,3.1 z"
         style="font-style:normal;font-variant:normal;font-weight:500;font-stretch:normal;font-size:38.75px;font-family:Raleway;-inkscape-font-specification:'Raleway Medium';fill:#ffffff"
         id="path3418" />
      <path
         d="m 815.35902,1128.2696 q -2.28625,0 -4.185,-0.8525 -1.86,-0.8525 -3.21625,-2.2863 -1.3175,-1.4337 -2.05375,-3.3325 -0.73625,-1.8987 -0.73625,-3.9912 0,-2.1313 0.73625,-4.03 0.775,-1.8988 2.0925,-3.3325 1.35625,-1.4338 3.21625,-2.2863 1.89875,-0.8525 4.14625,-0.8525 2.2475,0 4.14625,0.8525 1.89875,0.8525 3.21625,2.2863 1.35625,1.4337 2.0925,3.3325 0.775,1.8987 0.775,4.03 0,2.0925 -0.73625,3.9912 -0.73625,1.8988 -2.0925,3.3325 -1.35625,1.4338 -3.255,2.2863 -1.86,0.8525 -4.14625,0.8525 z m -6.70375,-10.4238 q 0,1.5888 0.50375,2.945 0.5425,1.3563 1.43375,2.3638 0.93,1.0075 2.13125,1.5887 1.24,0.5813 2.635,0.5813 1.395,0 2.59625,-0.5813 1.24,-0.5812 2.17,-1.5887 0.93,-1.0463 1.43375,-2.4025 0.5425,-1.395 0.5425,-2.9838 0,-1.55 -0.5425,-2.9062 -0.50375,-1.395 -1.43375,-2.4025 -0.93,-1.0463 -2.17,-1.6275 -1.20125,-0.5813 -2.59625,-0.5813 -1.395,0 -2.635,0.62 -1.20125,0.5813 -2.13125,1.6275 -0.89125,1.0075 -1.43375,2.4025 -0.50375,1.3563 -0.50375,2.945 z"
         style="font-style:normal;font-variant:normal;font-weight:500;font-stretch:normal;font-size:38.75px;font-family:Raleway;-inkscape-font-specification:'Raleway Medium';fill:#ffffff"
         id="path3420" />
      <path
         d="m 843.1682,1104.5158 q 2.8675,0 5.425,1.0463 2.59625,1.0462 4.53375,2.9837 1.97625,1.8988 3.1,4.65 1.1625,2.7125 1.1625,6.0838 0,0.5425 -0.0775,1.4725 -0.0388,0.8912 -0.2325,1.8987 -0.19375,1.0075 -0.58125,2.0538 -0.34875,1.0462 -1.0075,1.8987 -0.65875,0.8525 -1.6275,1.3563 -0.93,0.5425 -2.2475,0.5425 -1.0075,0 -1.6275,-0.31 -0.62,-0.2713 -1.0075,-0.7363 -0.34875,-0.5037 -0.50375,-1.1237 -0.155,-0.62 -0.2325,-1.2788 -1.12375,1.1625 -2.82875,1.9763 -1.705,0.775 -3.75875,0.775 -2.82875,0 -4.37875,-1.4725 -1.51125,-1.5113 -1.51125,-3.7975 0,-1.5113 0.62,-2.5575 0.65875,-1.0463 1.705,-1.6663 1.04625,-0.62 2.325,-0.8912 1.3175,-0.2713 2.59625,-0.2713 1.66625,0 2.90625,0.3488 1.24,0.31 1.86,0.5425 0,-1.2788 -0.2325,-2.325 -0.19375,-1.085 -0.73625,-1.8213 -0.50375,-0.775 -1.43375,-1.2012 -0.89125,-0.4263 -2.28625,-0.4263 -1.55,0 -2.90625,0.5038 -1.35625,0.465 -2.44125,1.2787 l -0.775,-1.8987 q 1.395,-0.93 2.98375,-1.4338 1.6275,-0.5425 3.44875,-0.5425 2.2475,0 3.565,0.7363 1.3175,0.7362 1.97625,1.8987 0.65875,1.1625 0.81375,2.5963 0.19375,1.395 0.19375,2.7512 l 0,4.6113 q 0,0.8525 0.0388,1.5887 0.0775,0.7363 0.27125,1.2788 0.19375,0.5425 0.58125,0.8525 0.42625,0.31 1.085,0.31 1.1625,0 1.89875,-0.8138 0.73625,-0.8137 1.1625,-1.9762 0.465,-1.2013 0.62,-2.48 0.155,-1.3175 0.155,-2.325 0,-2.79 -0.96875,-5.1538 -0.93,-2.4025 -2.635,-4.185 -1.705,-1.7825 -4.03,-2.79 -2.325,-1.0075 -5.0375,-1.0075 -2.67375,0 -4.99875,0.9688 -2.325,0.9687 -4.06875,2.6737 -1.705,1.705 -2.7125,4.1075 -0.96875,2.3638 -0.96875,5.1538 0,2.7125 0.93,5.0762 0.93,2.3638 2.59625,4.1075 1.66625,1.7825 3.9525,2.79 2.28625,1.0463 4.99875,1.0463 1.74375,0 3.13875,-0.4263 1.395,-0.3875 2.82875,-1.0462 l 0.5425,1.4725 q -1.58875,0.775 -3.255,1.1625 -1.6275,0.3875 -3.29375,0.3875 -2.90625,0 -5.46375,-1.085 -2.5575,-1.085 -4.495,-3.0225 -1.89875,-1.9375 -3.0225,-4.6113 -1.085,-2.6737 -1.085,-5.8512 0,-3.3325 1.20125,-6.0063 1.20125,-2.6737 3.1775,-4.5337 2.015,-1.8988 4.61125,-2.9063 2.635,-1.0075 5.46375,-1.0075 z m 2.20875,20.4213 q 1.51125,-0.6975 1.9375,-1.6663 0.42625,-1.0075 0.42625,-2.015 l 0,-1.4337 q -0.50375,-0.078 -1.7825,-0.465 -1.24,-0.3875 -2.98375,-0.3875 -1.0075,0 -1.89875,0.1937 -0.89125,0.155 -1.58875,0.5813 -0.6975,0.3875 -1.12375,1.0462 -0.3875,0.62 -0.3875,1.5888 0,1.4725 1.04625,2.4412 1.04625,0.9688 2.79,0.9688 0.93,0 1.86,-0.2325 0.96875,-0.2713 1.705,-0.62 z"
         style="font-style:normal;font-variant:normal;font-weight:500;font-stretch:normal;font-size:38.75px;font-family:Raleway;-inkscape-font-specification:'Raleway Medium';fill:#ffffff"
         id="path3422" />
      <path
         d="m 867.49532,1128.2696 q -1.43375,0 -2.67375,-0.465 -1.24,-0.5038 -2.17,-1.3563 -0.89125,-0.8525 -1.43375,-1.9762 -0.50375,-1.1625 -0.50375,-2.5188 0,-1.395 0.62,-2.5187 0.62,-1.1625 1.74375,-1.9763 1.1625,-0.8137 2.7125,-1.2787 1.58875,-0.465 3.44875,-0.465 1.4725,0 2.98375,0.2712 1.51125,0.2713 2.67375,0.7363 l 0,-1.6275 q 0,-2.48 -1.395,-3.875 -1.395,-1.4338 -3.9525,-1.4338 -3.06125,0 -6.4325,2.3638 l -1.12375,-2.2088 q 3.91375,-2.635 7.86625,-2.635 3.99125,0 6.2,2.1313 2.2475,2.1312 2.2475,6.0062 l 0,8.2538 q 0,1.2012 1.085,1.24 l 0,2.945 q -0.5425,0.077 -0.89125,0.1162 -0.34875,0.039 -0.73625,0.039 -1.0075,0 -1.6275,-0.5813 -0.58125,-0.62 -0.6975,-1.4725 l -0.0775,-1.4337 q -1.35625,1.8212 -3.44875,2.79 -2.05375,0.93 -4.4175,0.93 z m 0.89125,-2.5575 q 1.82125,0 3.37125,-0.6588 1.58875,-0.6975 2.4025,-1.8212 0.73625,-0.7363 0.73625,-1.5113 l 0,-2.9837 q -2.48,-0.9688 -5.15375,-0.9688 -2.5575,0 -4.185,1.085 -1.58875,1.085 -1.58875,2.8288 0,0.8525 0.31,1.5887 0.34875,0.7363 0.93,1.2788 0.62,0.5425 1.43375,0.8525 0.81375,0.31 1.74375,0.31 z"
         style="font-style:normal;font-variant:normal;font-weight:500;font-stretch:normal;font-size:38.75px;font-family:Raleway;-inkscape-font-specification:'Raleway Medium';fill:#ffffff"
         id="path3424" />
      <path
         d="m 901.35072,1127.8821 -3.41,0 0,-11.315 q 0,-3.1388 -1.085,-4.65 -1.085,-1.55 -3.1775,-1.55 -1.0075,0 -2.015,0.4262 -1.0075,0.3875 -1.89875,1.085 -0.8525,0.6975 -1.55,1.6663 -0.65875,0.9687 -1.0075,2.1312 l 0,12.2063 -3.41,0 0,-28.2875 3.41,0 0,12.4 q 1.20125,-2.2088 3.255,-3.4488 2.05375,-1.24 4.495,-1.24 1.7825,0 3.0225,0.6588 1.24,0.6587 1.97625,1.7825 0.73625,1.1237 1.04625,2.7125 0.34875,1.55 0.34875,3.3325 l 0,12.09 z"
         style="font-style:normal;font-variant:normal;font-weight:500;font-stretch:normal;font-size:38.75px;font-family:Raleway;-inkscape-font-specification:'Raleway Medium';fill:#ffffff"
         id="path3426" />
      <path
         d="m 912.89216,1128.2696 q -3.1775,0 -4.805,-2.1313 -1.6275,-2.1312 -1.6275,-6.355 l 0,-12.1287 3.41,0 0,11.47 q 0,6.2 4.30125,6.2 2.0925,0 3.91375,-1.3175 1.86,-1.3563 2.75125,-3.6813 l 0,-12.6712 3.41,0 0,16.0425 q 0,1.2012 1.085,1.24 l 0,2.945 q -0.58125,0.077 -0.93,0.077 -0.31,0.039 -0.62,0.039 -1.0075,0 -1.705,-0.5812 -0.65875,-0.62 -0.6975,-1.5113 l -0.0775,-2.3637 q -1.35625,2.2862 -3.565,3.5262 -2.20875,1.2013 -4.84375,1.2013 z"
         style="font-style:normal;font-variant:normal;font-weight:500;font-stretch:normal;font-size:38.75px;font-family:Raleway;-inkscape-font-specification:'Raleway Medium';fill:#ffffff"
         id="path3428" />
      <path
         d="m 935.15646,1128.2696 q -1.43375,0 -2.67375,-0.465 -1.24,-0.5038 -2.17,-1.3563 -0.89125,-0.8525 -1.43375,-1.9762 -0.50375,-1.1625 -0.50375,-2.5188 0,-1.395 0.62,-2.5187 0.62,-1.1625 1.74375,-1.9763 1.1625,-0.8137 2.7125,-1.2787 1.58875,-0.465 3.44875,-0.465 1.4725,0 2.98375,0.2712 1.51125,0.2713 2.67375,0.7363 l 0,-1.6275 q 0,-2.48 -1.395,-3.875 -1.395,-1.4338 -3.9525,-1.4338 -3.06125,0 -6.4325,2.3638 l -1.12375,-2.2088 q 3.91375,-2.635 7.86625,-2.635 3.99125,0 6.2,2.1313 2.2475,2.1312 2.2475,6.0062 l 0,8.2538 q 0,1.2012 1.085,1.24 l 0,2.945 q -0.5425,0.077 -0.89125,0.1162 -0.34875,0.039 -0.73625,0.039 -1.0075,0 -1.6275,-0.5813 -0.58125,-0.62 -0.6975,-1.4725 l -0.0775,-1.4337 q -1.35625,1.8212 -3.44875,2.79 -2.05375,0.93 -4.4175,0.93 z m 0.89125,-2.5575 q 1.82125,0 3.37125,-0.6588 1.58875,-0.6975 2.4025,-1.8212 0.73625,-0.7363 0.73625,-1.5113 l 0,-2.9837 q -2.48,-0.9688 -5.15375,-0.9688 -2.5575,0 -4.185,1.085 -1.58875,1.085 -1.58875,2.8288 0,0.8525 0.31,1.5887 0.34875,0.7363 0.93,1.2788 0.62,0.5425 1.43375,0.8525 0.81375,0.31 1.74375,0.31 z"
         style="font-style:normal;font-variant:normal;font-weight:500;font-stretch:normal;font-size:38.75px;font-family:Raleway;-inkscape-font-specification:'Raleway Medium';fill:#ffffff"
         id="path3430" />
      <path
         d="m 950.10185,1117.7296 q 0,-2.1313 0.73625,-4.03 0.73625,-1.8988 2.0925,-3.2938 1.35625,-1.4337 3.21625,-2.2475 1.89875,-0.8525 4.22375,-0.8525 3.0225,0 5.1925,1.3563 2.20875,1.3175 3.3325,3.565 l -3.3325,1.0462 q -0.775,-1.4337 -2.17,-2.2087 -1.395,-0.8138 -3.1,-0.8138 -1.395,0 -2.635,0.5813 -1.24,0.5425 -2.13125,1.55 -0.89125,1.0075 -1.43375,2.3637 -0.50375,1.3563 -0.50375,2.9838 0,1.5887 0.5425,2.9837 0.5425,1.395 1.43375,2.4413 0.93,1.0075 2.13125,1.5887 1.24,0.5813 2.635,0.5813 0.89125,0 1.74375,-0.2325 0.89125,-0.2713 1.58875,-0.6975 0.73625,-0.4263 1.27875,-0.9688 0.5425,-0.5812 0.775,-1.24 l 3.3325,1.0075 q -0.465,1.1238 -1.3175,2.0538 -0.81375,0.93 -1.9375,1.5887 -1.12375,0.6588 -2.51875,1.0463 -1.35625,0.3875 -2.8675,0.3875 -2.28625,0 -4.185,-0.8525 -1.89875,-0.8525 -3.255,-2.2863 -1.35625,-1.4337 -2.13125,-3.3325 -0.73625,-1.9375 -0.73625,-4.0687 z"
         style="font-style:normal;font-variant:normal;font-weight:500;font-stretch:normal;font-size:38.75px;font-family:Raleway;-inkscape-font-specification:'Raleway Medium';fill:#ffffff"
         id="path3432" />
      <path
         d="m 978.06906,1128.2696 q -1.43375,0 -2.67375,-0.465 -1.24,-0.5038 -2.17,-1.3563 -0.89125,-0.8525 -1.43375,-1.9762 -0.50375,-1.1625 -0.50375,-2.5188 0,-1.395 0.62,-2.5187 0.62,-1.1625 1.74375,-1.9763 1.1625,-0.8137 2.7125,-1.2787 1.58875,-0.465 3.44875,-0.465 1.4725,0 2.98375,0.2712 1.51125,0.2713 2.67375,0.7363 l 0,-1.6275 q 0,-2.48 -1.395,-3.875 -1.395,-1.4338 -3.9525,-1.4338 -3.06125,0 -6.4325,2.3638 l -1.12375,-2.2088 q 3.91375,-2.635 7.86625,-2.635 3.99125,0 6.2,2.1313 2.2475,2.1312 2.2475,6.0062 l 0,8.2538 q 0,1.2012 1.085,1.24 l 0,2.945 q -0.5425,0.077 -0.89125,0.1162 -0.34875,0.039 -0.73625,0.039 -1.0075,0 -1.6275,-0.5813 -0.58125,-0.62 -0.6975,-1.4725 l -0.0775,-1.4337 q -1.35625,1.8212 -3.44875,2.79 -2.05375,0.93 -4.4175,0.93 z m 0.89125,-2.5575 q 1.82125,0 3.37125,-0.6588 1.58875,-0.6975 2.4025,-1.8212 0.73625,-0.7363 0.73625,-1.5113 l 0,-2.9837 q -2.48,-0.9688 -5.15375,-0.9688 -2.5575,0 -4.185,1.085 -1.58875,1.085 -1.58875,2.8288 0,0.8525 0.31,1.5887 0.34875,0.7363 0.93,1.2788 0.62,0.5425 1.43375,0.8525 0.81375,0.31 1.74375,0.31 z"
         style="font-style:normal;font-variant:normal;font-weight:500;font-stretch:normal;font-size:38.75px;font-family:Raleway;-inkscape-font-specification:'Raleway Medium';fill:#ffffff"
         id="path3434" />
      <path
         d="m 1004.6818,1126.8746 q -0.31,0.155 -0.8137,0.3875 -0.5038,0.1937 -1.1625,0.4262 -0.62,0.1938 -1.395,0.31 -0.7363,0.155 -1.55002,0.155 -1.86,0 -3.21625,-1.0075 -1.35625,-1.0462 -1.35625,-3.2162 l 0,-13.6013 -2.75125,0 0,-2.6737 2.75125,0 0,-6.7425 3.41,0 0,6.7425 4.53372,0 0,2.6737 -4.53372,0 0,12.555 q 0.0775,1.1238 0.73625,1.6275 0.65875,0.5038 1.54997,0.5038 1.0075,0 1.8213,-0.31 0.8525,-0.3488 1.1625,-0.5425 l 0.8137,2.7125 z"
         style="font-style:normal;font-variant:normal;font-weight:500;font-stretch:normal;font-size:38.75px;font-family:Raleway;-inkscape-font-specification:'Raleway Medium';fill:#ffffff"
         id="path3436" />
      <path
         d="m 1007.9199,1099.5946 3.41,0 0,23.0562 q 0,1.1238 0.5812,1.7825 0.62,0.62 1.705,0.62 0.4263,0 1.0075,-0.1162 0.5813,-0.155 1.085,-0.3488 l 0.5425,2.7513 q -0.8525,0.3487 -2.015,0.5812 -1.1625,0.2325 -2.0537,0.2325 -1.9763,0 -3.1388,-1.1237 -1.1237,-1.1238 -1.1237,-3.1388 l 0,-24.2962 z"
         style="font-style:normal;font-variant:normal;font-weight:500;font-stretch:normal;font-size:38.75px;font-family:Raleway;-inkscape-font-specification:'Raleway Medium';fill:#ffffff"
         id="path3438" />
      <path
         d="m 1018.6209,1127.8821 0,-4.34 2.8675,0 0,4.34 -2.8675,0 z"
         style="font-style:normal;font-variant:normal;font-weight:500;font-stretch:normal;font-size:38.75px;font-family:Raleway;-inkscape-font-specification:'Raleway Medium';fill:#ffffff"
         id="path3440" />
      <path
         d="m 1035.5983,1128.2696 q -2.2863,0 -4.185,-0.8525 -1.86,-0.8525 -3.2163,-2.2863 -1.3175,-1.4337 -2.0537,-3.3325 -0.7363,-1.8987 -0.7363,-3.9912 0,-2.1313 0.7363,-4.03 0.775,-1.8988 2.0925,-3.3325 1.3562,-1.4338 3.2162,-2.2863 1.8988,-0.8525 4.1463,-0.8525 2.2475,0 4.1462,0.8525 1.8988,0.8525 3.2163,2.2863 1.3562,1.4337 2.0925,3.3325 0.775,1.8987 0.775,4.03 0,2.0925 -0.7363,3.9912 -0.7362,1.8988 -2.0925,3.3325 -1.3562,1.4338 -3.255,2.2863 -1.86,0.8525 -4.1462,0.8525 z m -6.7038,-10.4238 q 0,1.5888 0.5038,2.945 0.5425,1.3563 1.4337,2.3638 0.93,1.0075 2.1313,1.5887 1.24,0.5813 2.635,0.5813 1.395,0 2.5962,-0.5813 1.24,-0.5812 2.17,-1.5887 0.93,-1.0463 1.4338,-2.4025 0.5425,-1.395 0.5425,-2.9838 0,-1.55 -0.5425,-2.9062 -0.5038,-1.395 -1.4338,-2.4025 -0.93,-1.0463 -2.17,-1.6275 -1.2012,-0.5813 -2.5962,-0.5813 -1.395,0 -2.635,0.62 -1.2013,0.5813 -2.1313,1.6275 -0.8912,1.0075 -1.4337,2.4025 -0.5038,1.3563 -0.5038,2.945 z"
         style="font-style:normal;font-variant:normal;font-weight:500;font-stretch:normal;font-size:38.75px;font-family:Raleway;-inkscape-font-specification:'Raleway Medium';fill:#ffffff"
         id="path3442" />
      <path
         d="m 1060.6175,1110.6383 q -2.5575,0.077 -4.5338,1.3175 -1.9375,1.24 -2.7512,3.4488 l 0,12.4775 -3.41,0 0,-20.2275 3.1775,0 0,4.6887 q 1.0462,-2.0925 2.7512,-3.3712 1.705,-1.3175 3.6425,-1.4725 0.3875,0 0.6588,0 0.2712,0 0.465,0.039 l 0,3.1 z"
         style="font-style:normal;font-variant:normal;font-weight:500;font-stretch:normal;font-size:38.75px;font-family:Raleway;-inkscape-font-specification:'Raleway Medium';fill:#ffffff"
         id="path3444" />
      <path
         d="m 1071.6812,1128.1146 q -2.0538,0 -3.7975,-0.8525 -1.705,-0.8525 -2.945,-2.2863 -1.24,-1.4337 -1.9375,-3.2937 -0.6588,-1.86 -0.6588,-3.875 0,-2.1313 0.6588,-4.03 0.6975,-1.9375 1.9375,-3.3713 1.24,-1.4337 2.945,-2.2475 1.7437,-0.8525 3.8362,-0.8525 2.5575,0 4.4175,1.24 1.86,1.24 3.1388,3.1388 l 0,-4.03 3.0225,0 0,19.995 q 0,2.17 -0.8138,3.7975 -0.8137,1.6662 -2.2087,2.79 -1.395,1.1237 -3.2938,1.705 -1.86,0.5812 -3.9912,0.5812 -3.4488,0 -5.6188,-1.2012 -2.1312,-1.1625 -3.565,-3.255 l 1.9763,-1.7438 q 1.2012,1.7825 3.1,2.6738 1.8987,0.8912 4.1075,0.8912 1.395,0 2.635,-0.3875 1.2787,-0.3875 2.2087,-1.1625 0.93,-0.775 1.4725,-1.9375 0.5813,-1.1625 0.5813,-2.7512 l 0,-3.565 q -0.5813,0.93 -1.395,1.705 -0.775,0.7362 -1.705,1.2787 -0.93,0.5038 -1.9763,0.775 -1.0462,0.2713 -2.1312,0.2713 z m 1.0462,-2.79 q 1.085,0 2.0925,-0.3875 1.0075,-0.3875 1.86,-1.0075 0.8525,-0.6588 1.4338,-1.4725 0.5812,-0.8138 0.775,-1.6663 l 0,-5.8125 q -0.4263,-1.0462 -1.1238,-1.8987 -0.6587,-0.8525 -1.5112,-1.4725 -0.8525,-0.6588 -1.86,-1.0075 -0.9688,-0.3488 -1.9763,-0.3488 -1.55,0 -2.79,0.6588 -1.2012,0.6587 -2.0537,1.7437 -0.8525,1.085 -1.3175,2.48 -0.465,1.3563 -0.465,2.7513 0,1.5112 0.5425,2.8675 0.5425,1.3562 1.4725,2.3637 0.93,1.0075 2.17,1.6275 1.2787,0.5813 2.7512,0.5813 z"
         style="font-style:normal;font-variant:normal;font-weight:500;font-stretch:normal;font-size:38.75px;font-family:Raleway;-inkscape-font-specification:'Raleway Medium';fill:#ffffff"
         id="path3446" />
    </g>
  </g>
</svg>
